<mxfile host="Electron" modified="2025-09-30T06:58:39.223Z" agent="Mozilla/5.0 (Windows NT 10.0; Win64; x64) AppleWebKit/537.36 (KHTML, like Gecko) draw.io/24.6.4 Chrome/124.0.6367.207 Electron/30.0.6 Safari/537.36" etag="4vTXJTby_gQglXLffYNQ" version="24.6.4" type="device">
  <diagram name="Page-1" id="p4rC6NMjMCjWW-SoQGMm">
    <mxGraphModel dx="25" dy="518" grid="1" gridSize="10" guides="1" tooltips="1" connect="1" arrows="1" fold="1" page="1" pageScale="1" pageWidth="850" pageHeight="1100" math="0" shadow="0">
      <root>
        <mxCell id="0" />
        <mxCell id="1" parent="0" />
        <mxCell id="h2_7Q08Zruv0tOP9LdHY-50" value="" style="rounded=0;whiteSpace=wrap;html=1;strokeColor=none;fillColor=#f5f5f5;fontColor=#333333;" vertex="1" parent="1">
          <mxGeometry x="940" y="20" width="580" height="370" as="geometry" />
        </mxCell>
        <mxCell id="h2_7Q08Zruv0tOP9LdHY-3" value="" style="shape=image;verticalLabelPosition=bottom;labelBackgroundColor=default;verticalAlign=top;aspect=fixed;imageAspect=0;image=data:image/svg+xml,PHN2ZyB4bWxucz0iaHR0cDovL3d3dy53My5vcmcvMjAwMC9zdmciIHByZXNlcnZlQXNwZWN0UmF0aW89InhNaW5ZTWluIG1lZXQiIHZpZXdCb3g9Ii00IDAgMjY0IDI2NCIgaGVpZ2h0PSI4MDBweCIgd2lkdGg9IjgwMHB4Ij48cGF0aCBkPSJNMjU1LjAwOCAxNTguMDg2Yy0xLjUzNS00LjY0OS01LjU1Ni03Ljg4Ny0xMC43NTYtOC42NjQtMi40NTItLjM2Ni01LjI2LS4yMS04LjU4My40NzUtNS43OTIgMS4xOTUtMTAuMDg5IDEuNjUtMTMuMjI1IDEuNzM4IDExLjgzNy0xOS45ODUgMjEuNDYyLTQyLjc3NSAyNy4wMDMtNjQuMjI4IDguOTYtMzQuNjg5IDQuMTcyLTUwLjQ5Mi0xLjQyMy01Ny42NEMyMzMuMjE3IDEwLjg0NyAyMTEuNjE0LjY4MyAxODUuNTUyLjM3MmMtMTMuOTAzLS4xNy0yNi4xMDggMi41NzUtMzIuNDc1IDQuNTQ5LTUuOTI4LTEuMDQ2LTEyLjMwMi0xLjYzLTE4Ljk5LTEuNzM4LTEyLjUzNy0uMi0yMy42MTQgMi41MzMtMzMuMDc5IDguMTUtNS4yNC0xLjc3Mi0xMy42NS00LjI3LTIzLjM2Mi01Ljg2NC0yMi44NDItMy43NS00MS4yNTItLjgyOC01NC43MTggOC42ODVDNi42MjIgMjUuNjcyLS45MzcgNDUuNjg0LjQ2MSA3My42MzRjLjQ0NCA4Ljg3NCA1LjQwOCAzNS44NzQgMTMuMjI0IDYxLjQ4IDQuNDkyIDE0LjcxOCA5LjI4MiAyNi45NCAxNC4yMzcgMzYuMzMgNy4wMjcgMTMuMzE1IDE0LjU0NiAyMS4xNTYgMjIuOTg3IDIzLjk3MiA0LjczMSAxLjU3NiAxMy4zMjcgMi42OCAyMi4zNjgtNC44NSAxLjE0NiAxLjM4OCAyLjY3NSAyLjc2NyA0LjcwNCA0LjA0OCAyLjU3NyAxLjYyNSA1LjcyOCAyLjk1MyA4Ljg3NSAzLjc0IDExLjM0MSAyLjgzNSAyMS45NjQgMi4xMjYgMzEuMDI3LTEuODQ4LjA1NiAxLjYxMi4wOTkgMy4xNTIuMTM1IDQuNDgyLjA2IDIuMTU3LjEyIDQuMjcyLjE5OSA2LjI1LjUzNyAxMy4zNzQgMS40NDcgMjMuNzczIDQuMTQzIDMxLjA0OS4xNDguNC4zNDcgMS4wMS41NTcgMS42NTcgMS4zNDUgNC4xMTggMy41OTQgMTEuMDEyIDkuMzE2IDE2LjQxMSA1LjkyNSA1LjU5MyAxMy4wOTIgNy4zMDggMTkuNjU2IDcuMzA4IDMuMjkyIDAgNi40MzMtLjQzMiA5LjE4OC0xLjAyMiA5LjgyLTIuMTA1IDIwLjk3My01LjMxMSAyOS4wNDEtMTYuNzk5IDcuNjI4LTEwLjg2IDExLjMzNi0yNy4yMTcgMTIuMDA3LTUyLjk5LjA4Ny0uNzI5LjE2Ny0xLjQyNS4yNDQtMi4wODhsLjE2LTEuMzYyIDEuNzk3LjE1OC40NjMuMDMxYzEwLjAwMi40NTYgMjIuMjMyLTEuNjY1IDI5Ljc0My01LjE1NCA1LjkzNS0yLjc1NCAyNC45NTQtMTIuNzk1IDIwLjQ3Ni0yNi4zNTEiLz48cGF0aCBmaWxsPSIjMzM2NzkxIiBkPSJNMjM3LjkwNiAxNjAuNzIyYy0yOS43NCA2LjEzNS0zMS43ODUtMy45MzQtMzEuNzg1LTMuOTM0IDMxLjQtNDYuNTkzIDQ0LjUyNy0xMDUuNzM2IDMzLjItMTIwLjIxMS0zMC45MDQtMzkuNDg1LTg0LjM5OS0yMC44MTEtODUuMjkyLTIwLjMyN2wtLjI4Ny4wNTJjLTUuODc2LTEuMjItMTIuNDUxLTEuOTQ2LTE5Ljg0Mi0yLjA2Ny0xMy40NTYtLjIyLTIzLjY2NCAzLjUyOC0zMS40MSA5LjQwMiAwIDAtOTUuNDMtMzkuMzE0LTkwLjk5MSA0OS40NDQuOTQ0IDE4Ljg4MiAyNy4wNjQgMTQyLjg3MyA1OC4yMTggMTA1LjQyMiAxMS4zODctMTMuNjk1IDIyLjM5LTI1LjI3NCAyMi4zOS0yNS4yNzQgNS40NjQgMy42MyAxMi4wMDYgNS40ODIgMTguODY0IDQuODE3bC41MzMtLjQ1MmMtLjE2NiAxLjctLjA5IDMuMzYzLjIxMyA1LjMzMi04LjAyNiA4Ljk2Ny01LjY2NyAxMC41NDEtMjEuNzExIDEzLjg0NC0xNi4yMzUgMy4zNDYtNi42OTggOS4zMDItLjQ3MSAxMC44NiA3LjU0OSAxLjg4NyAyNS4wMTMgNC41NjEgMzYuODEzLTExLjk1OGwtLjQ3IDEuODg1YzMuMTQ0IDIuNTE5IDUuMzUyIDE2LjM4MyA0Ljk4MiAyOC45NTItLjM3IDEyLjU2OC0uNjE3IDIxLjE5NyAxLjg2IDI3LjkzNyAyLjQ3OSA2Ljc0IDQuOTQ4IDIxLjkwNSAyNi4wNCAxNy4zODYgMTcuNjIzLTMuNzc3IDI2Ljc1Ni0xMy41NjQgMjguMDI3LTI5Ljg5LjkwMS0xMS42MDYgMi45NDItOS44OSAzLjA3LTIwLjI2N2wxLjYzNy00LjkxMmMxLjg4Ny0xNS43MzMuMy0yMC44MDkgMTEuMTU3LTE4LjQ0OGwyLjY0LjIzMmM3Ljk5LjM2MyAxOC40NS0xLjI4NiAyNC41ODktNC4xMzkgMTMuMjE4LTYuMTM0IDIxLjA1OC0xNi4zNzcgOC4wMjQtMTMuNjg2aC4wMDIiLz48cGF0aCBmaWxsPSIjRkZGIiBkPSJNMTA4LjA3NiA4MS41MjVjLTIuNjgtLjM3My01LjEwNy0uMDI4LTYuMzM1LjkwMi0uNjkuNTIzLS45MDQgMS4xMjktLjk2MiAxLjU0Ni0uMTU0IDEuMTA1LjYyIDIuMzI3IDEuMDk2IDIuOTU3IDEuMzQ2IDEuNzg0IDMuMzEyIDMuMDEgNS4yNTggMy4yOC4yODIuMDQuNTYzLjA1OC44NDIuMDU4IDMuMjQ1IDAgNi4xOTYtMi41MjcgNi40NTYtNC4zOTIuMzI1LTIuMzM2LTMuMDY2LTMuODkzLTYuMzU1LTQuMzVNMTk2Ljg2IDgxLjU5OWMtLjI1Ni0xLjgzMS0zLjUxNC0yLjM1My02LjYwNi0xLjkyMy0zLjA4OC40My02LjA4MiAxLjgyNC01LjgzMiAzLjY1OS4yIDEuNDI3IDIuNzc3IDMuODYzIDUuODI3IDMuODYzLjI1OCAwIC41MTgtLjAxNy43OC0uMDU0IDIuMDM2LS4yODIgMy41My0xLjU3NSA0LjI0LTIuMzIgMS4wOC0xLjEzNiAxLjcwNi0yLjQwMiAxLjU5MS0zLjIyNSIvPjxwYXRoIGZpbGw9IiNGRkYiIGQ9Ik0yNDcuODAyIDE2MC4wMjVjLTEuMTM0LTMuNDI5LTQuNzg0LTQuNTMyLTEwLjg0OC0zLjI4LTE4LjAwNSAzLjcxNi0yNC40NTMgMS4xNDItMjYuNTctLjQxNyAxMy45OTUtMjEuMzIgMjUuNTA4LTQ3LjA5MiAzMS43MTktNzEuMTM3IDIuOTQyLTExLjM5IDQuNTY3LTIxLjk2OCA0LjctMzAuNTkuMTQ3LTkuNDYzLTEuNDY1LTE2LjQxNy00Ljc4OS0yMC42NjUtMTMuNDAyLTE3LjEyNS0zMy4wNzItMjYuMzExLTU2Ljg4Mi0yNi41NjMtMTYuMzY5LS4xODQtMzAuMTk5IDQuMDA1LTMyLjg4IDUuMTgzLTUuNjQ2LTEuNDA0LTExLjgwMS0yLjI2Ni0xOC41MDItMi4zNzYtMTIuMjg4LS4xOTktMjIuOTEgMi43NDMtMzEuNzA0IDguNzQtMy44Mi0xLjQyMi0xMy42OTItNC44MTEtMjUuNzY1LTYuNzU2LTIwLjg3Mi0zLjM2LTM3LjQ1OC0uODE0LTQ5LjI5NCA3LjU3MS0xNC4xMjMgMTAuMDA2LTIwLjY0MyAyNy44OTItMTkuMzggNTMuMTYuNDI1IDguNTAxIDUuMjY5IDM0LjY1MyAxMi45MTMgNTkuNjk4IDEwLjA2MiAzMi45NjQgMjEgNTEuNjI1IDMyLjUwOCA1NS40NjQgMS4zNDcuNDQ5IDIuOS43NjMgNC42MTMuNzYzIDQuMTk4IDAgOS4zNDUtMS44OTIgMTQuNy04LjMzYTUyOS44MzIgNTI5LjgzMiAwIDAgMSAyMC4yNjEtMjIuOTI2YzQuNTI0IDIuNDI4IDkuNDk0IDMuNzg0IDE0LjU3NyAzLjkyLjAxLjEzMy4wMjMuMjY2LjAzNS4zOThhMTE3LjY2IDExNy42NiAwIDAgMC0yLjU3IDMuMTc1Yy0zLjUyMiA0LjQ3MS00LjI1NSA1LjQwMi0xNS41OTIgNy43MzYtMy4yMjUuNjY2LTExLjc5IDIuNDMxLTExLjkxNiA4LjQzNS0uMTM2IDYuNTYgMTAuMTI1IDkuMzE1IDExLjI5NCA5LjYwNyA0LjA3NCAxLjAyIDcuOTk5IDEuNTIzIDExLjc0MiAxLjUyMyA5LjEwMyAwIDE3LjExNC0yLjk5MiAyMy41MTYtOC43ODEtLjE5NyAyMy4zODYuNzc4IDQ2LjQzIDMuNTg2IDUzLjQ1MSAyLjMgNS43NDggNy45MTggMTkuNzk1IDI1LjY2NCAxOS43OTQgMi42MDQgMCA1LjQ3LS4zMDMgOC42MjMtLjk3OSAxOC41MjEtMy45NyAyNi41NjQtMTIuMTU2IDI5LjY3NS0zMC4yMDMgMS42NjUtOS42NDUgNC41MjItMzIuNjc2IDUuODY2LTQ1LjAzIDIuODM2Ljg4NSA2LjQ4NyAxLjI5IDEwLjQzNCAxLjI4OSA4LjIzMiAwIDE3LjczMS0xLjc0OSAyMy42ODgtNC41MTQgNi42OTItMy4xMDggMTguNzY4LTEwLjczNCAxNi41NzgtMTcuMzZ6bS00NC4xMDYtODMuNDhjLS4wNjEgMy42NDctLjU2MyA2Ljk1OC0xLjA5NSAxMC40MTQtLjU3MyAzLjcxNy0xLjE2NSA3LjU2LTEuMzE0IDEyLjIyNS0uMTQ3IDQuNTQuNDIgOS4yNi45NjggMTMuODI1IDEuMTA4IDkuMjIgMi4yNDUgMTguNzEyLTIuMTU2IDI4LjA3OGEzNi41MDggMzYuNTA4IDAgMCAxLTEuOTUtNC4wMDljLS41NDctMS4zMjYtMS43MzUtMy40NTYtMy4zOC02LjQwNC02LjM5OS0xMS40NzYtMjEuMzg0LTM4LjM1LTEzLjcxMy00OS4zMTYgMi4yODUtMy4yNjQgOC4wODQtNi42MiAyMi42NC00LjgxM3ptLTE3LjY0NC02MS43ODdjMjEuMzM0LjQ3MSAzOC4yMSA4LjQ1MiA1MC4xNTggMjMuNzIgOS4xNjQgMTEuNzExLS45MjcgNjQuOTk4LTMwLjE0IDExMC45NjlhMTcxLjMzIDE3MS4zMyAwIDAgMC0uODg2LTEuMTE3bC0uMzctLjQ2MmM3LjU0OS0xMi40NjcgNi4wNzMtMjQuODAyIDQuNzU5LTM1LjczOC0uNTQtNC40ODgtMS4wNS04LjcyNy0uOTItMTIuNzA5LjEzNC00LjIyLjY5Mi03Ljg0IDEuMjMyLTExLjM0LjY2My00LjMxMyAxLjMzOC04Ljc3NiAxLjE1Mi0xNC4wMzcuMTM5LS41NTIuMTk1LTEuMjA0LjEyMi0xLjk3OC0uNDc1LTUuMDQ1LTYuMjM1LTIwLjE0NC0xNy45NzUtMzMuODEtNi40MjItNy40NzUtMTUuNzg3LTE1Ljg0LTI4LjU3NC0yMS40ODIgNS41LTEuMTQgMTMuMDIxLTIuMjAzIDIxLjQ0Mi0yLjAxNnpNNjYuNjc0IDE3NS43NzhjLTUuOSA3LjA5NC05Ljk3NCA1LjczNC0xMS4zMTQgNS4yODgtOC43My0yLjkxMi0xOC44Ni0yMS4zNjQtMjcuNzkxLTUwLjYyNC03LjcyOC0yNS4zMTgtMTIuMjQ0LTUwLjc3Ny0xMi42MDItNTcuOTE2LTEuMTI4LTIyLjU3OCA0LjM0NS0zOC4zMTMgMTYuMjY4LTQ2Ljc2OSAxOS40MDQtMTMuNzYgNTEuMzA2LTUuNTI0IDY0LjEyNS0xLjM0Ny0uMTg0LjE4Mi0uMzc2LjM1Mi0uNTU4LjUzNy0yMS4wMzYgMjEuMjQ0LTIwLjUzNyA1Ny41NC0yMC40ODUgNTkuNzU5LS4wMDIuODU2LjA3IDIuMDY4LjE2OCAzLjczNS4zNjIgNi4xMDUgMS4wMzYgMTcuNDY3LS43NjQgMzAuMzM0LTEuNjcyIDExLjk1NyAyLjAxNCAyMy42NiAxMC4xMTEgMzIuMTA5YTM2LjI3NSAzNi4yNzUgMCAwIDAgMi42MTcgMi40NjhjLTMuNjA0IDMuODYtMTEuNDM3IDEyLjM5Ni0xOS43NzUgMjIuNDI2em0yMi40NzktMjkuOTkzYy02LjUyNi02LjgxLTkuNDktMTYuMjgyLTguMTMzLTI1Ljk5IDEuOS0xMy41OTIgMS4xOTktMjUuNDMuODIyLTMxLjc5LS4wNTMtLjg5LS4xLTEuNjctLjEyNy0yLjI4NSAzLjA3My0yLjcyNSAxNy4zMTQtMTAuMzU1IDI3LjQ3LTguMDI4IDQuNjM0IDEuMDYxIDcuNDU4IDQuMjE3IDguNjMyIDkuNjQ1IDYuMDc2IDI4LjEwMy44MDQgMzkuODE2LTMuNDMyIDQ5LjIyOS0uODczIDEuOTM5LTEuNjk4IDMuNzcyLTIuNDAyIDUuNjY4bC0uNTQ2IDEuNDY2Yy0xLjM4MiAzLjcwNi0yLjY2OCA3LjE1Mi0zLjQ2NSAxMC40MjQtNi45MzgtLjAyLTEzLjY4Ny0yLjk4NC0xOC44MTktOC4zNHptMS4wNjUgMzcuOWMtMi4wMjYtLjUwNi0zLjg0OC0xLjM4NS00LjkxNy0yLjExNC44OTMtLjQyIDIuNDgyLS45OTIgNS4yMzgtMS41NiAxMy4zMzctMi43NDUgMTUuMzk3LTQuNjgzIDE5Ljg5NS0xMC4zOTQgMS4wMzEtMS4zMSAyLjItMi43OTQgMy44MTktNC42MDJsLjAwMi0uMDAyYzIuNDExLTIuNyAzLjUxNC0yLjI0MiA1LjUxNC0xLjQxMiAxLjYyMS42NyAzLjIgMi43MDIgMy44NCA0LjkzOC4zMDMgMS4wNTYuNjQzIDMuMDYtLjQ3IDQuNjItOS4zOTYgMTMuMTU2LTIzLjA4OCAxMi45ODctMzIuOTIxIDEwLjUyNnptNjkuNzk5IDY0Ljk1MmMtMTYuMzE2IDMuNDk2LTIyLjA5My00LjgyOS0yNS45LTE0LjM0Ni0yLjQ1Ny02LjE0NC0zLjY2NS0zMy44NS0yLjgwOC02NC40NDcuMDExLS40MDctLjA0Ny0uOC0uMTU5LTEuMTdhMTUuNDQ0IDE1LjQ0NCAwIDAgMC0uNDU2LTIuMTYyYy0xLjI3NC00LjQ1Mi00LjM3OS04LjE3Ni04LjEwNC05LjcyLTEuNDgtLjYxMy00LjE5Ni0xLjczOC03LjQ2LS45MDMuNjk2LTIuODY4IDEuOTAzLTYuMTA3IDMuMjEyLTkuNjE0bC41NDktMS40NzVjLjYxOC0xLjY2MyAxLjM5NC0zLjM4NiAyLjIxNC01LjIxIDQuNDMzLTkuODQ4IDEwLjUwNC0yMy4zMzcgMy45MTUtNTMuODEtMi40NjgtMTEuNDE0LTEwLjcxLTE2Ljk4OC0yMy4yMDQtMTUuNjkzLTcuNDkuNzc1LTE0LjM0MyAzLjc5Ny0xNy43NjEgNS41My0uNzM1LjM3Mi0xLjQwNy43MzItMi4wMzUgMS4wODIuOTU0LTExLjUgNC41NTgtMzIuOTkyIDE4LjA0LTQ2LjU5IDguNDg5LTguNTYgMTkuNzk0LTEyLjc4OCAzMy41NjgtMTIuNTYgMjcuMTQuNDQ0IDQ0LjU0NCAxNC4zNzIgNTQuMzY2IDI1Ljk3OSA4LjQ2NCAxMC4wMDEgMTMuMDQ3IDIwLjA3NiAxNC44NzYgMjUuNTEtMTMuNzU1LTEuMzk5LTIzLjExIDEuMzE2LTI3Ljg1MiA4LjA5Ni0xMC4zMTcgMTQuNzQ4IDUuNjQ0IDQzLjM3MiAxMy4zMTUgNTcuMTI5IDEuNDA3IDIuNTIxIDIuNjIxIDQuNyAzLjAwMyA1LjYyNiAyLjQ5OCA2LjA1NCA1LjczMiAxMC4wOTYgOC4wOTMgMTMuMDQ2LjcyNC45MDQgMS40MjYgMS43ODEgMS45NiAyLjU0Ny00LjE2NiAxLjIwMS0xMS42NDkgMy45NzYtMTAuOTY3IDE3Ljg0Ny0uNTUgNi45Ni00LjQ2MSAzOS41NDYtNi40NDggNTEuMDU5LTIuNjIzIDE1LjIxLTguMjIgMjAuODc1LTIzLjk1NyAyNC4yNXptNjguMTA0LTc3LjkzNmMtNC4yNiAxLjk3Ny0xMS4zODkgMy40Ni0xOC4xNjEgMy43NzktNy40OC4zNS0xMS4yODgtLjgzOC0xMi4xODQtMS41NjktLjQyLTguNjQ0IDIuNzk3LTkuNTQ3IDYuMjAyLTEwLjUwMy41MzUtLjE1IDEuMDU3LS4yOTcgMS41NjEtLjQ3My4zMTMuMjU1LjY1Ni41MDggMS4wMzIuNzU2IDYuMDEyIDMuOTY4IDE2LjczNSA0LjM5NiAzMS44NzQgMS4yNzFsLjE2Ni0uMDMzYy0yLjA0MiAxLjkwOS01LjUzNiA0LjQ3MS0xMC40OSA2Ljc3MnoiLz48L3N2Zz4=;" vertex="1" parent="1">
          <mxGeometry x="1225" y="340" width="30" height="30" as="geometry" />
        </mxCell>
        <mxCell id="h2_7Q08Zruv0tOP9LdHY-4" value="" style="shape=image;verticalLabelPosition=bottom;labelBackgroundColor=default;verticalAlign=top;aspect=fixed;imageAspect=0;image=data:image/svg+xml,PHN2ZyB4bWxuczp4bGluaz0iaHR0cDovL3d3dy53My5vcmcvMTk5OS94bGluayIgeG1sbnM9Imh0dHA6Ly93d3cudzMub3JnLzIwMDAvc3ZnIiBzdHlsZT0iZmlsbC1ydWxlOmV2ZW5vZGQ7Y2xpcC1ydWxlOmV2ZW5vZGQ7c3Ryb2tlLWxpbmVjYXA6cm91bmQ7c3Ryb2tlLWxpbmVqb2luOnJvdW5kO3N0cm9rZS1taXRlcmxpbWl0OjEuNTsiIHhtbDpzcGFjZT0icHJlc2VydmUiIHZlcnNpb249IjEuMSIgdmlld0JveD0iMCAwIDEwMjQgMTAyNCIgaGVpZ2h0PSIxMDAlIiB3aWR0aD0iMTAwJSI+JiN4YTsgICAgPGcgdHJhbnNmb3JtPSJtYXRyaXgoMS4wNzY2NiwwLDAsMS4wNzY2NiwtMzUuOTAxOCwtODQuMTU2MikiIGlkPSJEb2NsaW5nIj4mI3hhOyAgICAgICAgPGcgdHJhbnNmb3JtPSJtYXRyaXgoMSwwLDAsMSwtMC40Mjk3NDEsNTUuMDg3OSkiIGlkPSJPdXRsaW5lIj4mI3hhOyAgICAgICAgICAgIDxwYXRoIHN0eWxlPSJmaWxsOndoaXRlOyIgZD0iTTM5NC43MDksNjkuMDlDNDE3LjM0LDM1LjA3NyA0NjcuOTcsMzAuMTc4IDQ3OC4wMzEsNTUuNjA5QzQ4Ni4zNSw1NS4wNDMgNDk0LjcyNiw1NC43MDEgNTAzLjE1OCw1NC41ODlDNTMzLjE1Nyw0NS4yMzggNTYwLjQ5Niw0Ny40MTkgNTg0LjY1LDYwLjczMkM4MDAuOTQxLDk2LjY2IDk2Ni4wNjksMjg0LjgxNCA5NjYuMDY5LDUxMS4yMzJDOTY2LjA2OSw3NjMuMjg0IDc2MS40MzUsOTY3LjkxOCA1MDkuMzgzLDk2Ny45MThDNDMzLjY5Miw5NjcuOTE4IDM2Mi4yNzcsOTQ5LjQ2NCAyOTkuMzg1LDkxNi44MDhMMjQyLjMsOTMxLjk5M0MyMDMuMDkyLDk0My4yNDIgMTg3LjcxNSw5MjguMzY5IDIwOC41NzUsODkxLjg3MUMyMDguOTM1LDg5MS4yNCAyMTYuNTE4LDg3OS4zNyAyMjMuOTk3LDg2Ny42NzdDMTE5LjYwNCw3ODMuOTc1IDUyLjY5OCw2NTUuMzU1IDUyLjY5OCw1MTEuMjMyQzUyLjY5OCwyOTguNzc4IDE5OC4wODYsMTIwLjAxMyAzOTQuNzA5LDY5LjA5WiIvPiYjeGE7ICAgICAgICA8L2c+JiN4YTsgICAgICAgIDxnIHRyYW5zZm9ybT0ibWF0cml4KDEuMDIzMTcsMCwwLDEuMDIzMTcsLTExLjU1LC0xNy44MzMzKSIgaWQ9IkNvbG9yIj4mI3hhOyAgICAgICAgICAgIDxwYXRoIHN0eWxlPSJmaWxsOnVybCgjX0xpbmVhcjEpOyIgZD0iTTI4NC44LDg5NC4yMzJMMTc5LjczNSw3ODMuOTU1TDEzMC4yMjIsNjQ1LjIwM0wxMjUuNTM4LDUwNC43MjZMMTg1LjIxMSwzODUuODE2QzIwOS4wMDYsMzIyLjczOCAyNDkuOTUxLDI3OC45NzMgMzAyLjI4MSwyNDguMDI4TDQwNi42ODQsMjAzLjMzM0w0MTMuNDgzLDE3NS43NjdMNDM2LjYzNywxNTIuNDI4TDQ1MS40MDgsMTUzLjMxMkw0NTcuNzI2LDE4My4xODNMNDg1LjE2NCwxNjUuMzc5TDUyNi45MiwxNTkuNjk5TDU1Ny4wMTQsMTc3LjU0NUw2MTIuNjUyLDIxMS4wMThDNjc5LjAwOSwyMjYuMDY2IDc0MC41MDUsMjY0LjE0NiA3OTcuMTM4LDMyNS4yNkw4NjIuODEzLDQyMy40NzdMODkxLjU4Myw1NjAuODI2TDg4My4yNzMsNjgzLjMyTDgxNC4yNjgsODA5LjkyNEw3MzQuNDMxLDg5NC4zODRMNjQ0LjQ5NSw5MjYuOTA2TDQ5Ny4xNDYsOTU0LjEyMUwzNjEuMDY0LDk0MC42NDdMMjg0LjgsODk0LjIzMloiLz4mI3hhOyAgICAgICAgICAgIDxwYXRoIHN0eWxlPSJmaWxsOnVybCgjX0xpbmVhcjIpOyIgZD0iTTY5OS45MzIsODg3LjI1NUw2MzQuNDI3LDgyNS4yOTFMNTk3Ljg4NCw3ODIuMzUyTDU5NC45MDYsNzM4Ljk1Nkw2MTAuMTQsNzA5LjM5Nkw2NDMuMjA3LDY5OS45NTRMNjg1LDcxMC4xMTFMNzMwLjQyNSw3MzYuNDI1TDc2NS4yMDQsNzc4Ljc5TDc3NS4xNjYsODQ5LjUzMUw3MTkuMzgxLDg5NC4wODJMNjk5LjkzMiw4ODcuMjU1WiIvPiYjeGE7ICAgICAgICAgICAgPGcgdHJhbnNmb3JtPSJtYXRyaXgoLTAuNzY1OTQ1LDAsMCwxLDgzOS43MjcsNS40NzQzNCkiPiYjeGE7ICAgICAgICAgICAgICAgIDxjbGlwUGF0aCBpZD0iX2NsaXAzIj4mI3hhOyAgICAgICAgICAgICAgICAgICAgPHBhdGggZD0iTTY5OS45MzIsODg3LjI1NUw2MzQuNDI3LDgyNS4yOTFMNTk3Ljg4NCw3ODIuMzUyTDU5NC45MDYsNzM4Ljk1Nkw2MTAuMTQsNzA5LjM5Nkw2NDMuMjA3LDY5OS45NTRMNjg1LDcxMC4xMTFMNzMwLjQyNSw3MzYuNDI1TDc2NS4yMDQsNzc4Ljc5TDc3NS4xNjYsODQ5LjUzMUw3MTkuMzgxLDg5NC4wODJMNjk5LjkzMiw4ODcuMjU1WiIvPiYjeGE7ICAgICAgICAgICAgICAgIDwvY2xpcFBhdGg+JiN4YTsgICAgICAgICAgICAgICAgPGcgY2xpcC1wYXRoPSJ1cmwoI19jbGlwMykiPiYjeGE7ICAgICAgICAgICAgICAgICAgICA8ZyB0cmFuc2Zvcm09Im1hdHJpeCgtMS4xODUxNiwwLDAsMC45MDc3NjksMTAzOS4wNCw4OC4zNDk2KSI+JiN4YTsgICAgICAgICAgICAgICAgICAgICAgICA8dXNlIHRyYW5zZm9ybT0ibWF0cml4KDAuOTk0MTA1LDAsMCwwLjk5OTMwOCwwLDApIiBoZWlnaHQ9IjIxMy44NTJweCIgd2lkdGg9IjE1Mi4wOThweCIgeT0iNjc0LjIxIiB4PSIyMjMuOTY5IiB4bGluazpocmVmPSIjX0ltYWdlNCIvPiYjeGE7ICAgICAgICAgICAgICAgICAgICA8L2c+JiN4YTsgICAgICAgICAgICAgICAgPC9nPiYjeGE7ICAgICAgICAgICAgPC9nPiYjeGE7ICAgICAgICAgICAgPHBhdGggc3R5bGU9ImZpbGwtb3BhY2l0eTowLjIyOyIgZD0iTTMxMS42OTksNzEzLjUyMUMxODkuMTc4LDYzOS4wOTEgMTY0LjI5OSw1MjYuNzcgMTkxLjgyNCwzOTQuMTEzTDEzNS4xMzYsNDc2LjQzNEwxMjIuMDA0LDU0Ny41M0MxNDMuMDIyLDYxNC4wMTQgMTc0LjUyMiw2NzYuMTk5IDIyNS4wMDUsNzMwLjU5OEMyMTAuNjAxLDc1NC4xNTYgMjAxLjg5NCw3NzYuNjAxIDE5Ny45NTUsNzk4LjExNEwyNDUuODAzLDg0MS42N0MyNDcuMjc0LDgxMi4xIDI1NC45MzQsNzgzLjA0NyAyNzAuNjE0LDc1NC42NjRMMzExLjY5OSw3MTMuNTIxWiIvPiYjeGE7ICAgICAgICAgICAgPGcgdHJhbnNmb3JtPSJtYXRyaXgoLTEsMCwwLDEsMTAyMi4wNCwyLjc0NDQyKSI+JiN4YTsgICAgICAgICAgICAgICAgPHBhdGggc3R5bGU9ImZpbGwtb3BhY2l0eTowLjIyOyIgZD0iTTMxMS42OTksNzEzLjUyMUMxODkuMTc4LDYzOS4wOTEgMTY0LjI5OSw1MjYuNzcgMTkxLjgyNCwzOTQuMTEzTDEzNS4xMzYsNDc2LjQzNEwxMjIuMDA0LDU0Ny41M0MxNDMuMDIyLDYxNC4wMTQgMTc0LjUyMiw2NzYuMTk5IDIyNS4wMDUsNzMwLjU5OEMyMTAuNjAxLDc1NC4xNTYgMjAxLjg5NCw3NzYuNjAxIDE5Ny45NTUsNzk4LjExNEwyNDUuODAzLDg0MS42N0MyNDcuMjc0LDgxMi4xIDI1NC45MzQsNzgzLjA0NyAyNzAuNjE0LDc1NC42NjRMMzExLjY5OSw3MTMuNTIxWiIvPiYjeGE7ICAgICAgICAgICAgPC9nPiYjeGE7ICAgICAgICAgICAgPHBhdGggc3R5bGU9ImZpbGw6dXJsKCNfTGluZWFyNSk7IiBkPSJNMzU0LjkyLDY1MC44MThMNDIwLjAwOSw2NjMuMTg1TDQ5My4zNjgsNjY2LjM3OUw1NTQuODI2LDY2NS4yNTFMNjIwLjE5LDY1OC41MTFMNjU4LjE2OSw2NTEuNDI4TDY3MS40MjgsNjQ0LjgwMkw2NzMuMjY1LDYyNy4wOTNMNjU5Ljg5OCw2MTEuODQ1TDYyNS40MjIsNjA5LjI0NEw1OTkuMjc1LDU5MS4yMTJMNTY4LjYzMiw1NTYuNzlMNTQyLjksNTM0LjMzNkw1MTUuMDUyLDUyOC4yNTNMNDgwLjQxMiw1MzIuNzFMNDU1LjIsNTUyLjMzN0w0MjguNTE0LDU3OC4xNTVMNDA1LjMxMiw1OTkuMzU5TDM3NC4yMjgsNjEyLjA5N0wzNTUuMzQyLDYxNC40NTZMMzQwLjc1LDYzMC4zMDhMMzQxLjU2OCw2NDUuMzQxTDM1NC45Miw2NTAuODE4WiIvPiYjeGE7ICAgICAgICAgICAgPHBhdGggc3R5bGU9ImZpbGw6dXJsKCNfTGluZWFyNik7IiBkPSJNMjU3LjE2OCw5NDkuMzJMMzE3LjQzNCw4NzYuNzQ3TDM2NC45MjgsODEwLjZMMzg0LjEsNzQzLjkzNEwzNzguNzU5LDcxNC43MTlMMzc2Ljg0NCw2ODUuODQ5TDM3NC44MzYsNjU5Ljk1NEw0NDguNzM0LDY2NC4yTDUxMS40NjIsNjY3LjYwMkw1NzEuMzM5LDY2NS4wOTFMNjMyLjc5Niw2NTguODM2TDY0OC4yMzIsNjU2Ljg4Mkw2NDkuOTM3LDY5Ny44MDhMNjA4LjEwNSw3MTcuNzAyTDU5OC40NSw3MzguNTk0TDU5Mi4yODYsNzYxLjY0Mkw2MDQuNzQzLDc5Ni4zMDlMNjM5LjU5NSw4MjUuODAzTDY0OS44NzIsODQwLjc1N0w1NTguMjE5LDg5NS4xNTJMNTAyLjEyNCw5MDcuNTY5TDQyNS43ODEsOTIzLjQ5NkwzMzMuMjksOTMxLjI5OEwyODYuMjY5LDkzNi45MDdMMjU3LjE2OCw5NDkuMzJaIi8+JiN4YTsgICAgICAgICAgICA8ZyB0cmFuc2Zvcm09Im1hdHJpeCgxLDAsMCwxLjMwMDgxLC0xLjc3NjM2ZS0xNSwtMTk2LjQ4OCkiPiYjeGE7ICAgICAgICAgICAgICAgIDxwYXRoIHN0eWxlPSJmaWxsLW9wYWNpdHk6MC4xODsiIGQ9Ik0zNzQuMTY1LDY4NS4yNjhDNDYzLjk0Niw3MDYuNTk5IDU1My43MjgsNzA3LjQ5MSA2NDMuNTEsNjg4LjU5M0w2NDEuOTAzLDY1My4xOTlDNTQ5LjI2Myw2NzEuNzMxIDQ1OS42NDUsNjcyLjIyIDM3My4wNTksNjU0LjYxMUwzNzQuMTY1LDY4NS4yNjhaIi8+JiN4YTsgICAgICAgICAgICA8L2c+JiN4YTsgICAgICAgICAgICA8cGF0aCBzdHlsZT0iZmlsbDp3aGl0ZTsiIGQ9Ik00NTkuNjMzLDU3MS40NTdDNDc2LjcsNTM2LjA5MSA1MzAuMDY0LDUzNS45MTMgNTUzLjEsNTY4Ljc2N0M1MjAuNzAzLDU1MS40MDcgNDg5LjU1Myw1NTIuMzc0IDQ1OS42MzMsNTcxLjQ1N1oiLz4mI3hhOyAgICAgICAgICAgIDxnIHRyYW5zZm9ybT0ibWF0cml4KDEsMCwwLDEsMC4yMjM0NjgsLTIuNjE5NDkpIj4mI3hhOyAgICAgICAgICAgICAgICA8cGF0aCBzdHlsZT0iZmlsbDpyZ2IoMjU1LDIxMyw5NSk7IiBkPSJNMzU1LjMsMjY3LjIzMkM1MDAuNjQsMTczLjE1NiA3MjAuNjk5LDI0MS4zNjIgNzkzLjY5MSw0MjMuNTgyQzc2Ni43MTYsMzg0Ljg0IDczNS43MjUsMzU3LjA3OCA2OTcuNTMsMzQ5LjAxNEw3MTcuMzA2LDMzNS4yNDhDNjk4LjUzNywzMjEuNDkgNjc1Ljc5NCwzMjAuOTU3IDY1MS4wMzksMzI3LjExOUM2NTIuMjM1LDMxNS43NjggNjU4Ljk5NSwzMDYuOTkxIDY3NC4xODgsMzAyLjExNUM2NDEuODY0LDI4Ny40MjcgNjE3LjM1NiwyODkuNDczIDU5Ni4yNTgsMjk4LjgxOEM1OTcuMDQ5LDI4Ni4xMTYgNjA1LjgyNywyNzguMDg3IDYyMC4wNjgsMjczLjI1NEM1ODkuMTkyLDI2Ny40NzcgNTY0LjEzLDI3MC45MjYgNTQ0LjY1MSwyODMuMjMyQzU0NS44MjIsMjcxLjgzMSA1NTAuNzA5LDI2MC45NDMgNTYwLjkxMywyNTAuNzlDNTE3LjQ5OCwyNTcuMDk1IDQ5Mi45OTUsMjY3LjkyNSA0ODIuODkyLDI4Mi4yMDJDNDc3LjMxMSwyNjkuNDk5IDQ3Ny4yNzQsMjU3LjIyMSA0ODcuNjI1LDI0NS43MzlDNDM5LjE2MSwyNTIuOTMyIDQyMS41NTUsMjY1LjA5NCA0MTAuMzU1LDI3OC4yODZDNDA3LjY5NywyNjkuMDEgNDA3LjcwNSwyNjAuNjMyIDQxMC44NTMsMjUzLjMxNkMzODkuNjMzLDI1NC43NzMgMzcyLjE3OCwyNjAuNjYzIDM1NS4zLDI2Ny4yMzJaIi8+JiN4YTsgICAgICAgICAgICA8L2c+JiN4YTsgICAgICAgICAgICA8cGF0aCBzdHlsZT0iZmlsbDpyZ2IoMjU1LDIxNSwxMDEpOyIgZD0iTTQ3NS42NTYsMjA5LjE3NUM0NzkuNjM5LDE3NS4wMzcgNTAzLjQzNywxNzMuMjk5IDUzMi40MTIsMTgwLjAyNkM1MDcuMjQyLDE4My40MDQgNDg2Ljk2OSwxOTUuMjUxIDQ3My43MDUsMjE5LjIxNUw0NzUuNjU2LDIwOS4xNzVaIi8+JiN4YTsgICAgICAgICAgICA8ZyB0cmFuc2Zvcm09Im1hdHJpeCgwLjExNDMyMywtMC42NTUyMjksMC44Mjc0MSwwLjE0NDM2NSwyMjQuNjMyLDQ5Ny4zMTcpIj4mI3hhOyAgICAgICAgICAgICAgICA8cGF0aCBzdHlsZT0iZmlsbDpyZ2IoMjU1LDIxNSwxMDEpOyIgZD0iTTQ3NS42NTYsMjA5LjE3NUM0NzkuNjM5LDE3NS4wMzcgNTAzLjQzNywxNzMuMjk5IDUzMi40MTIsMTgwLjAyNkM1MDcuMjQyLDE4My40MDQgNDg2Ljk2OSwxOTUuMjUxIDQ3My43MDUsMjE5LjIxNUw0NzUuNjU2LDIwOS4xNzVaIi8+JiN4YTsgICAgICAgICAgICA8L2c+JiN4YTsgICAgICAgICAgICA8ZyB0cmFuc2Zvcm09Im1hdHJpeCgxLjY3MzksMS4xNTIxN2UtMTYsLTEuMTUyMTdlLTE2LC0wLjczMzA3NSwtMzQxLjQ2LDEwMzkuNzcpIj4mI3hhOyAgICAgICAgICAgICAgICA8cGF0aCBzdHlsZT0iZmlsbDp3aGl0ZTsiIGQ9Ik00NDcuNDQ5LDU2MC45MTFDNDY4LjE3OSw1MzYuOTYzIDU0Ni4yMzcsNTM5LjMwNSA1NjUuNjM4LDU2MC44MzFDNTMzLjE2Niw1NTUuNTQxIDQ3Ny4yOTYsNTUzLjQ5NCA0NDcuNDQ5LDU2MC45MTFaIi8+JiN4YTsgICAgICAgICAgICA8L2c+JiN4YTsgICAgICAgICAgICA8cGF0aCBzdHlsZT0iZmlsbDpyZ2IoMTk5LDY4LDYpOyIgZD0iTTM0OC4yMDEsNjIyLjM0MUMzOTUuNTQ5LDY1My41MzQgNjIyLjM1MSw2NjAuODU0IDY2MS45MzYsNjE2LjcyOUw2NzcuNTY4LDYzMy44MzRMNjY3LjA0NCw2NTAuMzA4TDU1Ny44MDIsNjY3LjUxOEw0OTguMDc0LDY3MC41NjJMNDQ2LjcxOCw2NjYuNDE2TDM5MS40MDQsNjU4LjQwNkwzNDguMTU0LDY1Mi41MDFMMzQwLjE2MSw2MzcuMTE5TDM0OC4yMDEsNjIyLjM0MVoiLz4mI3hhOyAgICAgICAgPC9nPiYjeGE7ICAgICAgICA8ZyB0cmFuc2Zvcm09Im1hdHJpeCgxLjAyMzE3LDAsMCwxLjAyMzE3LC0xMS41NSwtMTcuODMzMykiIGlkPSJCbGFjay1vdXRsaW5lIj4mI3hhOyAgICAgICAgICAgIDxwYXRoIHN0eWxlPSJmaWxsOm5vbmU7c3Ryb2tlOmJsYWNrO3N0cm9rZS13aWR0aDoxNS43M3B4OyIgZD0iTTM3My4zODksNjU3LjkxOUMzNzYuMjg1LDY3Ni4zMzQgMzc3LjA0LDY5NS4wMTYgMzc1LjMyNiw3MTQuMDA4Ii8+JiN4YTsgICAgICAgICAgICA8cGF0aCBzdHlsZT0iZmlsbDpub25lO3N0cm9rZTpibGFjaztzdHJva2Utd2lkdGg6MTUuNzNweDsiIGQ9Ik02NDUuOTMxLDY1NC45NjFDNjQ2LjE1OCw2NjkuOTU4IDY0Ny4yMiw2ODQuODUzIDY0OC45NzUsNjk5LjY2MSIvPiYjeGE7ICAgICAgICAgICAgPHBhdGggZD0iTTI5MC4wODQsNTM0LjY2MkMyNzYuNTU0LDUzMy41MzUgMjY0Ljg5Miw1MzAuMDI0IDI1NC4yNzksNTI1LjE3NUMyNzYuNzMyLDU1NS4zNDEgMzA1LjMxNiw1NjkuNzYgMzM4LjYzMSw1NzIuMDI5TDI5MC4wODQsNTM0LjY2MloiLz4mI3hhOyAgICAgICAgICAgIDxnIHRyYW5zZm9ybT0ibWF0cml4KDAuOTQxNzcsMCwwLDAuOTQ5MDksMjguODg2OCwzLjc5NTAxKSI+JiN4YTsgICAgICAgICAgICAgICAgPGVsbGlwc2Ugcnk9Ijg5LjQxMiIgcng9Ijg4LjkxMSIgY3k9IjUxMC4zNCIgY3g9IjMzOC4wMjIiLz4mI3hhOyAgICAgICAgICAgIDwvZz4mI3hhOyAgICAgICAgICAgIDxnIHRyYW5zZm9ybT0ibWF0cml4KDAuMTEyMDk5LDAuMDU1MjUwNiwtMC4wNjczMTE4LDAuMTM2NTcxLDQ1NS4zNjcsNTA5LjQwOSkiPiYjeGE7ICAgICAgICAgICAgICAgIDxlbGxpcHNlIHJ5PSI4OS40MTIiIHJ4PSI4OC45MTEiIGN5PSI1MTAuMzQiIGN4PSIzMzguMDIyIi8+JiN4YTsgICAgICAgICAgICA8L2c+JiN4YTsgICAgICAgICAgICA8ZyB0cmFuc2Zvcm09Im1hdHJpeCgtMC4xMTIwOTksMC4wNTUyNTA2LDAuMDY3MzExOCwwLjEzNjU3MSw1NjAuNTI5LDUwOS40OTIpIj4mI3hhOyAgICAgICAgICAgICAgICA8ZWxsaXBzZSByeT0iODkuNDEyIiByeD0iODguOTExIiBjeT0iNTEwLjM0IiBjeD0iMzM4LjAyMiIvPiYjeGE7ICAgICAgICAgICAgPC9nPiYjeGE7ICAgICAgICAgICAgPGcgdHJhbnNmb3JtPSJtYXRyaXgoLTEsMCwwLDEsMTAxMy4zMywtMS4xNTE4NykiPiYjeGE7ICAgICAgICAgICAgICAgIDxwYXRoIGQ9Ik0yOTAuMDg0LDUzNC42NjJDMjc2LjU1NCw1MzMuNTM1IDI2NC44OTIsNTMwLjAyNCAyNTQuMjc5LDUyNS4xNzVDMjc2LjczMiw1NTUuMzQxIDMwNS4zMTYsNTY5Ljc2IDMzOC42MzEsNTcyLjAyOUwyOTAuMDg0LDUzNC42NjJaIi8+JiN4YTsgICAgICAgICAgICA8L2c+JiN4YTsgICAgICAgICAgICA8ZyB0cmFuc2Zvcm09Im1hdHJpeCgtMC45NDE3NywwLDAsMC45NDkwOSw5ODQuNDQsMi42NDMxNCkiPiYjeGE7ICAgICAgICAgICAgICAgIDxlbGxpcHNlIHJ5PSI4OS40MTIiIHJ4PSI4OC45MTEiIGN5PSI1MTAuMzQiIGN4PSIzMzguMDIyIi8+JiN4YTsgICAgICAgICAgICA8L2c+JiN4YTsgICAgICAgICAgICA8ZyB0cmFuc2Zvcm09Im1hdHJpeCgxLDAsMCwxLDEuOTA0NywtNS41NzM0NikiPiYjeGE7ICAgICAgICAgICAgICAgIDxwYXRoIHN0eWxlPSJmaWxsOndoaXRlOyIgZD0iTTI3Ny4wMjEsNDg5LjYwNEMyNzkuODI4LDU1NC41NDUgMzU1Ljg1NSw1ODMuNTA4IDQwNS4zMDYsNTM3Ljg1MUMzNTQuNDU4LDU5OS41MzcgMjYzLjg4MSw1NjAuOTE0IDI3Ny4wMjEsNDg5LjYwNFoiLz4mI3hhOyAgICAgICAgICAgIDwvZz4mI3hhOyAgICAgICAgICAgIDxnIHRyYW5zZm9ybT0ibWF0cml4KC0xLDAsMCwxLDEwMTEuNDMsLTUuNzI4NCkiPiYjeGE7ICAgICAgICAgICAgICAgIDxwYXRoIHN0eWxlPSJmaWxsOndoaXRlOyIgZD0iTTI3Ny4wMjEsNDg5LjYwNEMyNzkuODI4LDU1NC41NDUgMzU1Ljg1NSw1ODMuNTA4IDQwNS4zMDYsNTM3Ljg1MUMzNTQuNDU4LDU5OS41MzcgMjYzLjg4MSw1NjAuOTE0IDI3Ny4wMjEsNDg5LjYwNFoiLz4mI3hhOyAgICAgICAgICAgIDwvZz4mI3hhOyAgICAgICAgICAgIDxnIHRyYW5zZm9ybT0ibWF0cml4KDAuOTczODE1LDAsMCwxLjAwMjQ2LDQuNzE3NjEsLTAuNTA4NzU5KSI+JiN4YTsgICAgICAgICAgICAgICAgPHBhdGggc3R5bGU9ImZpbGw6bm9uZTtzdHJva2U6YmxhY2s7c3Ryb2tlLXdpZHRoOjI5LjM5cHg7IiBkPSJNNDA3LjIyLDIwNi44OTFDMTA3LjY1NSwzMzkuMzg0IDEzNC40NDcsNjMwLjAzIDMxNC42MTUsNzA4LjMwNSIvPiYjeGE7ICAgICAgICAgICAgPC9nPiYjeGE7ICAgICAgICAgICAgPGcgdHJhbnNmb3JtPSJtYXRyaXgoLTAuOTczODE1LDAsMCwxLjAwMjQ2LDEwMDYuNjcsLTEuMzE2OTUpIj4mI3hhOyAgICAgICAgICAgICAgICA8cGF0aCBzdHlsZT0iZmlsbDpub25lO3N0cm9rZTpibGFjaztzdHJva2Utd2lkdGg6MjkuMzlweDsiIGQ9Ik00NjEuNTU5LDE5Ni43NTZDMTE5Ljc2OCwyNTYuNzYyIDExMS4wNTksNjQyLjU0NCAzMjAuMzA1LDcxMS40ODYiLz4mI3hhOyAgICAgICAgICAgIDwvZz4mI3hhOyAgICAgICAgICAgIDxnIGlkPSJ2ZWN0b3ItZHVjayI+JiN4YTsgICAgICAgICAgICAgICAgPHBhdGggc3R5bGU9ImZpbGw6bm9uZTtzdHJva2U6YmxhY2s7c3Ryb2tlLXdpZHRoOjIxLjc5cHg7IiBkPSJNMjQwLjkxMiw4NTAuNzFDMjQ4LjA0Myw3NDAuMjMxIDMyNS42MDksNjg1Ljk5MiAzNzEuMjY4LDcxNS4xOTNDMzg2LjQ4Nyw3MjQuOTI2IDM5Mi41MDYsNzU3LjcyIDM1OC41NzUsODE2Ljc1M0MzMjcuMDA1LDg3MS42OCAzMDAuNDY1LDg5NC41OTYgMjg4LjMyOSw5MDMuNDQ3Ii8+JiN4YTsgICAgICAgICAgICAgICAgPHBhdGggc3R5bGU9ImZpbGw6bm9uZTtzdHJva2U6YmxhY2s7c3Ryb2tlLXdpZHRoOjE1LjczcHg7IiBkPSJNNjM4LjM4Miw4NDMuNDI2QzQyNy45OTEsOTY0LjY5NSAzODkuMDIyLDkwMi45NDIgMjUxLjUxMiw5NDcuNjQxTDMwNy43NTksODg5LjU3MyIvPiYjeGE7ICAgICAgICAgICAgICAgIDxwYXRoIHN0eWxlPSJmaWxsOm5vbmU7c3Ryb2tlOmJsYWNrO3N0cm9rZS13aWR0aDoyMS43OXB4OyIgZD0iTTc3MC45OTEsODUzLjc1NEM3NzkuMzY0LDc2NC45OTggNzMwLjY3LDcyNy45MjMgNjY2LjM4NSw3MDQuOTY2QzYyOS41NjgsNjkxLjgxOSA1ODAuNDgzLDcyMy44ODYgNTk1Ljk3NCw3NzIuNTk2QzYwNi4yODUsODA1LjAxNiA2NTAuNTQsODM5LjAyOSA3MDcuNzg2LDg4Ni43NzgiLz4mI3hhOyAgICAgICAgICAgICAgICA8ZyB0cmFuc2Zvcm09Im1hdHJpeCgxLDAsMCwxLC0xLjg3MjA4LDAuOTA4MDk5KSI+JiN4YTsgICAgICAgICAgICAgICAgICAgIDxwYXRoIGQ9Ik02MDMuMjg3LDc3Mi40MTVDNjE0LjIzNyw3NTcuOTYzIDYyNy41NTMsNzUwLjI4NSA2NDIuODc4LDc0OC4zNTJDNjI4LjM1Niw3NjAuOTY4IDYxNy4yMyw3NzUuNjc2IDYyMC42MzIsNzk5LjMzNkM2MzUuODE1LDc4NS4xNSA2NTAuMzY3LDc3OS40NTcgNjY0LjM5Niw3ODAuODAxQzY1MS43MTUsNzkwLjcgNjM5LjMyOSw4MDMuMjc5IDY0MS4wMzksODE4LjA4OUM2NDEuMjQ3LDgxOS44OTEgNjQ3LjA0Myw4MjMuOTk2IDY0Ny41OTUsODI1LjgzN0M2NTkuODk3LDgxNi4zNyA2NzIuODY3LDgxMS4wNjUgNjg5LjIzNCw4MDkuNDcyQzY3Ni41NzcsODIyLjY1OSA2NjguMDIxLDgzNC4wMTEgNjc0LjQ3OCw4NDguNzI5TDY2NC4zMzMsODQ3LjgyNUw2MjUuNjQzLDgxMi42MDRMNjAzLjYyOSw3ODYuMjE4TDYwMy4yODcsNzcyLjQxNVoiLz4mI3hhOyAgICAgICAgICAgICAgICA8L2c+JiN4YTsgICAgICAgICAgICAgICAgPGcgdHJhbnNmb3JtPSJtYXRyaXgoLTAuOTY5ODUxLDAuMjQzNywwLjI0MzcsMC45Njk4NTEsNzczLjMyOSwtMTM4LjIxMikiPiYjeGE7ICAgICAgICAgICAgICAgICAgICA8cGF0aCBkPSJNNjAzLjI4Nyw3NzIuNDE1QzYxNC4yMzcsNzU3Ljk2MyA2MjcuNTUzLDc1MC4yODUgNjQyLjg3OCw3NDguMzUyQzYyOC4zNTYsNzYwLjk2OCA2MTcuMjMsNzc1LjY3NiA2MjAuNjMyLDc5OS4zMzZDNjM1LjgxNSw3ODUuMTUgNjUwLjM2Nyw3NzkuNDU3IDY2NC4zOTYsNzgwLjgwMUM2NTEuNzE1LDc5MC43IDYzOS4zMjksODAzLjI3OSA2NDEuMDM5LDgxOC4wODlDNjQxLjI0Nyw4MTkuODkxIDY0Ny4wNDMsODIzLjk5NiA2NDcuNTk1LDgyNS44MzdDNjU5Ljg5Nyw4MTYuMzcgNjcyLjg2Nyw4MTEuMDY1IDY4OS4yMzQsODA5LjQ3MkM2NzYuNTc3LDgyMi42NTkgNjY4LjAyMSw4MzQuMDExIDY3NC40NzgsODQ4LjcyOUw2NjQuMzMzLDg0Ny44MjVMNjI1LjY0Myw4MTIuNjA0TDYwMy42MjksNzg2LjIxOEw2MDMuMjg3LDc3Mi40MTVaIi8+JiN4YTsgICAgICAgICAgICAgICAgPC9nPiYjeGE7ICAgICAgICAgICAgICAgIDxwYXRoIHN0eWxlPSJmaWxsOm5vbmU7c3Ryb2tlOmJsYWNrO3N0cm9rZS13aWR0aDoxNS43M3B4OyIgZD0iTTUxMS43ODcsNjcwLjA0NEM0NjEuMDYxLDY3MS44MzUgNDExLjg3OCw2NjIuODQgMzYxLjMyMiw2NTMuOTJDMzI5LjA3MSw2NDguMjI5IDMzNS41Niw2MTYuNDMyIDM2MS42OTMsNjE1LjE4MUMzOTEuNDk4LDYxMy43NTQgNDExLjgzLDYwMS43MzcgNDM3LjU5Myw1NjkuMDg0QzQ1OS4wNjMsNTQxLjg3MiA0ODIuNDQzLDUyOC4xNDMgNTA2LjgzNCw1MjkuNzY3Ii8+JiN4YTsgICAgICAgICAgICAgICAgPGcgdHJhbnNmb3JtPSJtYXRyaXgoLTEsMCwwLDEsMTAxNC40NCwtMC4yMTM0NTEpIj4mI3hhOyAgICAgICAgICAgICAgICAgICAgPHBhdGggc3R5bGU9ImZpbGw6bm9uZTtzdHJva2U6YmxhY2s7c3Ryb2tlLXdpZHRoOjE1LjczcHg7IiBkPSJNNTExLjc4Nyw2NzAuMDQ0QzQ2MS4wNjEsNjcxLjgzNSA0MTEuODc4LDY2Mi44NCAzNjEuMzIyLDY1My45MkMzMjkuMDcxLDY0OC4yMjkgMzM1LjU2LDYxNi40MzIgMzYxLjY5Myw2MTUuMTgxQzM5MS40OTgsNjEzLjc1NCA0MTEuODMsNjAxLjczNyA0MzcuNTkzLDU2OS4wODRDNDU5LjA2Myw1NDEuODcyIDQ4Mi40NDMsNTI4LjE0MyA1MDYuODM0LDUyOS43NjciLz4mI3hhOyAgICAgICAgICAgICAgICA8L2c+JiN4YTsgICAgICAgICAgICA8L2c+JiN4YTsgICAgICAgICAgICA8ZyB0cmFuc2Zvcm09Im1hdHJpeCgyLjQ1ODYsMCwwLDIuNTQ5NywtNDQ0LjUyNywtNjkwLjQzNCkiPiYjeGE7ICAgICAgICAgICAgICAgIDxlbGxpcHNlIHN0eWxlPSJmaWxsOndoaXRlOyIgcnk9IjEwLjQ4IiByeD0iMTAuNjMiIGN5PSI0NTAuNzUxIiBjeD0iMzEyLjU2NiIvPiYjeGE7ICAgICAgICAgICAgPC9nPiYjeGE7ICAgICAgICAgICAgPGcgdHJhbnNmb3JtPSJtYXRyaXgoMi40NTg2LDAsMCwyLjU0OTcsLTEyNy43NSwtNjkwLjk5MSkiPiYjeGE7ICAgICAgICAgICAgICAgIDxlbGxpcHNlIHN0eWxlPSJmaWxsOndoaXRlOyIgcnk9IjEwLjQ4IiByeD0iMTAuNjMiIGN5PSI0NTAuNzUxIiBjeD0iMzEyLjU2NiIvPiYjeGE7ICAgICAgICAgICAgPC9nPiYjeGE7ICAgICAgICAgICAgPHBhdGggc3R5bGU9ImZpbGw6bm9uZTtzdHJva2U6YmxhY2s7c3Ryb2tlLXdpZHRoOjEyLjFweDsiIGQ9Ik01MDUuNzM4LDY5OC4wNjFMNTc4Ljg3OSw3MTMuOTg5Ii8+JiN4YTsgICAgICAgICAgICA8cGF0aCBzdHlsZT0iZmlsbDpub25lO3N0cm9rZTpibGFjaztzdHJva2Utd2lkdGg6MTIuMXB4OyIgZD0iTTQyMi43ODEsNzA5LjZMNTY4LjQzOCw3NDMuMDQxIi8+JiN4YTsgICAgICAgICAgICA8cGF0aCBzdHlsZT0iZmlsbDpub25lO3N0cm9rZTpibGFjaztzdHJva2Utd2lkdGg6MTIuMXB4OyIgZD0iTTQxOS45NDEsNzM4LjQwOUw1NjUuNjg4LDc3Mi45ODkiLz4mI3hhOyAgICAgICAgICAgIDxwYXRoIHN0eWxlPSJmaWxsOm5vbmU7c3Ryb2tlOmJsYWNrO3N0cm9rZS13aWR0aDoxMi4xcHg7IiBkPSJNNDA4LjYsNzg3LjA4TDUxMC42MzQsODEwLjY4OSIvPiYjeGE7ICAgICAgICAgICAgPHBhdGggc3R5bGU9ImZpbGw6bm9uZTtzdHJva2U6YmxhY2s7c3Ryb2tlLXdpZHRoOjEyLjFweDsiIGQ9Ik0zOTcuNTcxLDgxNS45NTZMNTAwLjkzLDg0MC4yMTkiLz4mI3hhOyAgICAgICAgICAgIDxwYXRoIHN0eWxlPSJmaWxsOm5vbmU7c3Ryb2tlOmJsYWNrO3N0cm9rZS13aWR0aDoxMi4xcHg7IiBkPSJNMzg2Ljc2Myw4NDQuOTI2TDQ1NC4wNjUsODYxLjk3NCIvPiYjeGE7ICAgICAgICAgICAgPHBhdGggc3R5bGU9ImZpbGw6bm9uZTtzdHJva2U6YmxhY2s7c3Ryb2tlLXdpZHRoOjE2Ljk1cHg7IiBkPSJNNDU5LjE2OSw5MTkuMTY5QzUxMi4xOTQsODk4LjI2MiA1MzkuMTcxLDg2Ny4yOTggNTM1LjI0MSw4MjQuNDAyQzU2OC4wNTIsODE4LjMxIDU5OC40OTksODE3LjA1OCA2MjUuODQsODIyLjE2NSIvPiYjeGE7ICAgICAgICAgICAgPHBhdGggZD0iTTM2Ni4yMTksMjQxLjEwNkMzODkuNjA1LDIyOS4yNjEgNDEzLjM3MSwyMjAuNjAxIDQzOC4yNDcsMjE3LjVDNDE2Ljc5NSwyMDIuNDE5IDQxOC43MiwxNzQuNTgyIDQ0NC4yMiwxNjIuNDdDNDQyLjA4NiwxNzguMTc1IDQ0Ny42MzMsMTkzLjM1NCA0NjQuNzcyLDIwNy43MzhDNDY4LjcyMSwxNjcuNTcgNTMwLjAxNSwxNjIuMDg3IDU0NS42NzQsMTg0LjExMkM1MjYuNDUsMTg5LjMxNCA1MTMuMDgyLDE5Ny4zNDQgNTA0LjU2NiwyMDcuNzE3QzUyMi40MDMsMjA4LjExOSA1NDAuNzA2LDIwNy44NiA1NTYuMiwyMTAuNjA5TDU2Ni45MzUsMTY4LjQ3MUM1MzYuMzg4LDE0Ni4yMDggNDk1LjcxOCwxNDIuMTY2IDQ2NC42NSwxNjYuNzA1QzQ2Ny43MDMsMTMzLjI2NCA0MTkuNTM2LDEyOC4zNjQgNDA0LjYyNCwxNzguNDdMMzY2LjIxOSwyNDEuMTA2WiIvPiYjeGE7ICAgICAgICAgICAgPHBhdGggZD0iTTM5Mi42MTcsOTI0LjU3NkM0MjguOTUzLDkzNi45MzggNDY3Ljg0LDk0My42MzYgNTA4LjI1OCw5NDMuNjM2QzcwOC45NDQsOTQzLjYzNiA4NzEuODc2LDc3OC40OSA4NzEuODc2LDU3NS4wNzZDODcxLjg3NiwzODIuNDYzIDcyNS43ODgsMjI0LjE2MiA1MzkuODk4LDIwNy44OTVMNTU0LjEzNywxNzMuNjk2TDU1NC40ODUsMTY4LjE4N0M3NTcuMjE4LDE5MS42MDIgOTE0Ljg5NSwzNjYuMDAzIDkxNC44OTUsNTc3LjM4M0M5MTQuODk1LDgwNC42OTggNzMyLjU0OSw5ODkuMjQ5IDUwNy45NDksOTg5LjI0OUM0MzUuMzgxLDk4OS4yNDkgMzY3LjIyMyw5NjkuOTgzIDMwOC4xOTksOTM2LjIzMkwzOTIuNjE3LDkyNC41NzZaTTI3OS4yMDYsOTE3Ljk4OEMxNzEuNjYzLDg0My44MTkgMTAxLjAwMiw3MTguODg3IDEwMS4wMDIsNTc3LjM4M0MxMDEuMDAyLDM4My4wMDYgMjM0LjMzMywyMTkuODk4IDQxMy4zOTgsMTc2LjcxMkw0MjQuMzc1LDIxNi4zODlDMjY0LjA4MiwyNTQuODAzIDE0NC42NCw0MDAuOTEzIDE0NC42NCw1NzUuMDc2QzE0NC42NCw3MDMuNzM1IDIwOS44MjIsODE3LjA4NiAzMDguNTE0LDg4My4wMjNMMjc5LjIwNiw5MTcuOTg4WiIvPiYjeGE7ICAgICAgICAgICAgPHBhdGggZD0iTTcxNC45MzgsODk1LjIyM0w2NDcuMjg3LDgzNi42OTNMNjE2LjA2LDg1NS4zMDhMNTQ5LjE1OCw4ODkuNDEyTDQ1OS44NDUsOTE5LjIxNkwzOTAuMjEzLDkyOC44MjhMNDI5LjI5MSw5NTAuNzEyTDUzNS44MzIsOTYwLjFMNTg2LjEzNyw5NTIuNTkxTDY2Mi4yNTQsOTMxLjg5Nkw3MTQuOTM4LDg5NS4yMjNaIi8+JiN4YTsgICAgICAgICAgICA8cGF0aCBzdHlsZT0iZmlsbDp1cmwoI19MaW5lYXI3KTsiIGQ9Ik00MjMuNTM4LDkyOS4zOUM1MDkuMTY0LDkxNy41OTMgNTgwLjgxNSw4OTAuNDY1IDY0MC44MjcsODUwLjU2NkM2MzUuNjc3LDg4Ni44MjggNjIyLjYzOSw5MTguMjE4IDU5NC4wMDYsOTM5Ljk3N0M1MzAuMjU0LDkzMC45NTMgNDc0Ljk1NSw5MjguNjMyIDQyMy41MzgsOTI5LjM5WiIvPiYjeGE7ICAgICAgICA8L2c+JiN4YTsgICAgPC9nPiYjeGE7ICAgIDxkZWZzPiYjeGE7ICAgICAgICA8bGluZWFyR3JhZGllbnQgZ3JhZGllbnRUcmFuc2Zvcm09Im1hdHJpeCgtNTIuMzk2MiwzNzUuMTIxLC0zNzUuMTIxLC01Mi4zOTYyLDQ3MS4xMzQsMzg0LjQ2MykiIGdyYWRpZW50VW5pdHM9InVzZXJTcGFjZU9uVXNlIiB5Mj0iMCIgeDI9IjEiIHkxPSIwIiB4MT0iMCIgaWQ9Il9MaW5lYXIxIj48c3RvcCBzdHlsZT0ic3RvcC1jb2xvcjpyZ2IoMjU1LDE3Niw0NCk7c3RvcC1vcGFjaXR5OjEiIG9mZnNldD0iMCIvPjxzdG9wIHN0eWxlPSJzdG9wLWNvbG9yOnJnYigyNTUsNzMsMik7c3RvcC1vcGFjaXR5OjEiIG9mZnNldD0iMSIvPjwvbGluZWFyR3JhZGllbnQ+JiN4YTsgICAgICAgIDxsaW5lYXJHcmFkaWVudCBncmFkaWVudFRyYW5zZm9ybT0ibWF0cml4KDI4LjYxOTgsLTg0Ljg5MTMsODQuODkxMywyOC42MTk4LDY0Ny44MzEsODMxLjU1KSIgZ3JhZGllbnRVbml0cz0idXNlclNwYWNlT25Vc2UiIHkyPSIwIiB4Mj0iMSIgeTE9IjAiIHgxPSIwIiBpZD0iX0xpbmVhcjIiPjxzdG9wIHN0eWxlPSJzdG9wLWNvbG9yOnJnYigyNTUsNzMsMik7c3RvcC1vcGFjaXR5OjEiIG9mZnNldD0iMCIvPjxzdG9wIHN0eWxlPSJzdG9wLWNvbG9yOnJnYigyNTUsMTc2LDQ0KTtzdG9wLW9wYWNpdHk6MSIgb2Zmc2V0PSIxIi8+PC9saW5lYXJHcmFkaWVudD4mI3hhOyAgICAgICAgPGltYWdlIHhsaW5rOmhyZWY9ImRhdGE6aW1hZ2UvanBlZztiYXNlNjQsLzlqLzRBQVFTa1pKUmdBQkFRRUFZQUJnQUFELzJ3QkRBQVVEQkFRRUF3VUVCQVFGQlFVR0J3d0lCd2NIQnc4TEN3a01FUThTRWhFUEVSRVRGaHdYRXhRYUZSRVJHQ0VZR2gwZEh4OGZFeGNpSkNJZUpCd2VIeDcvMndCREFRVUZCUWNHQnc0SUNBNGVGQkVVSGg0ZUhoNGVIaDRlSGg0ZUhoNGVIaDRlSGg0ZUhoNGVIaDRlSGg0ZUhoNGVIaDRlSGg0ZUhoNGVIaDRlSGg0ZUhoNy93QUFSQ0FEV0FKa0RBUkVBQWhFQkF4RUIvOFFBR1FBQkFRRUJBUUVBQUFBQUFBQUFBQUFBQXdBQ0J3WUYvOFFBR0JBQkFRRUJBUUFBQUFBQUFBQUFBQUFBQWdBQkVoSC94QUFiQVFBREFRQURBUUFBQUFBQUFBQUFBQUFBQVFNQ0JBVUdCLy9FQUJZUkFRRUJBQUFBQUFBQUFBQUFBQUFBQUFBQkVmL2FBQXdEQVFBQ0VRTVJBRDhBNjNmQVgxQlFGQVVCUUZBVUJRRkFVQlFGQVpTaHFRU1VOeUJTbXBJSkswcElKcWFrZ1VwdHlDYW1wSXgxRFdQUzBYU3FBb0NnS0FvQ2dLQW9DZ0tBd2xEVWdrb2JrRTFhVmtDbE51UWJVMUpBdFRVa0VsTlNRVFUyNUdPcHRZOVZjZDBLZ0tBb0NnS0FvQ2dLQW9ERFVOU0NTbXBJSnFha2dVcHR5Q2FtcElKS2FrZ1dwcVNDU20zSUpLYWtqSFUyc2V3dU04Nm9DZ0tBb0NnS0FvQ2dNSlExSUpxYWtnV3BxU0NTbXBJSnFiY2dVcHFTQ1NtcElKcWJjZ21wcVNDU21wSXgxUEdzZTF1Szh5b0NnS0FvQ2dLQW9BMm9ia0dsTnVRTFUxSkJKVFVrRWxQRzVBdFRVa0VsTlNRU1UxSkJOVGJrQ2xOU1FTVTFKR09wdFk5M2NSNVZRRkFVQlFGQVVBYlVOeUNhbTNJSktha2dtcHFTQmFtcElKS2JjZ21wcVNCYW1wSUpLYWtnbXB0eUJhbXBJTktha2pIVThheDBDNGJ5S2dLQW9DZ0xkOGdEU2h1UVRVMjVBdFRWa0VsTnVRVFUxSkJOVFVrRWxOdVFMVTFKQk5UVWtFbE5TUUxVMjVCSldsSkJKVFVrWTZockhScmhQR3FBb0NnTGQ4Z0RhaHVRU1UxSkF0VFVrRTFOdVFTVTFKQk5UVWtDbE5TUVNVMjVCTlRVa0MxTlNRU1ZwU1FTVU55Q2F0S1NCU21wSXgxRFdPbVhCZUpVQlFGdStRQnRRM0lGcWFrZ2twcVNDYW0zSUZxYWtna3BxU0NhbXBJSnFiY2dVcHFTQ2FtcElKcTBwSUpLYWtnV3B0eUNhbXBJSktha2pIVTJzZFJ1dmVGVUJidmtBU1VOeUNTbXBJSnFha2drcHFTQmFtM0lKcWFrZ2twcVNDYW0zSUZxYWtnbXBxU0NhbXBJRnEwcElKS2JjZ2twcVNCU21wSUpLYWtqSFVOWTZ2ZGU4Q3QzeUFKS0c1Qk5UVWtFMU5TUUxVMUpCSlRVa0UxTnVRTFUxSkJKV2xKQkpRcElKcTAzSUZLYWtna3A0cElKcWFrZ21wdHlCU21wSUpxYWtna3BxU01kUWVPdDd2bDF6NS9JTktHNUJOVGJrQ2xQRkpCSlRVa0UxTlNRS1UxSkJKVGJrRTFOU1FMVTFKQnRUYmtDMWFVa0UxTlNRU1UxSkF0VFVrRWxOdVFTVTFKQkpUVWtDMU5TUmpxYldPdXBYV1Buc2dtcHFTQlNtcElKcWJjZ2twcVNCYW1wSUpLMHBJSktiY2dXb1VrRTFhVWtFbE5TUVRVMjVBcFRVa0VsTlNRU1UyNUF0VFVrRWxOU1FUVTFKQXBUVWtaNmc4ZGNhdXRmUHBCSlRVa0UxTlNRTFUyNUJKVFVrRTFhVWtDMU51UVNVMUpCTlRVa0NsTlNRU1UyNUJKVFVrRTFOU1FTVTFKQXRUYmtFMU5TUVNVOFVrQ2xOU1FlNzdOdFFIV0VyclhnSkJKVFVrRTFOdVFTVThVa0NsTlNRVFZwdVFTVTFKQkpUVWtDMU5TUVRVMUpCSlRia0UxTlNRS1UxSkJKVFVrRWxOdVFMVTFKQkpUVWtIdSt6YlVCUUhVMnJybmhKQkpXbEpBdFRia0VsTlNRVFUxSkJKVGJrQzFOU1FTVTFKQk5UVWtFbE51UUtVMUpCSlRVa0UxTlNRU1UxSkF0VGJrRWxOU1FlNzdOdFFGQVVCMDFxNjk0aVFTVTFKQk5XbTVCTlRVa0NsTlNRVFUyNUJKVFVrRWxOU1FLVTI1Qk5UVmtFbE51UVRVMUpBcFRVa0VsTlNRU1UyNUI3dnMyMUFVQlFGQWRJYXVDOFpJSktlTnlDYW1wSUZLYWtnbXA0cElKS2JjZ1dwcVNDU25pa2dtcHFTQ1NtM0lGS2FrZ2twcVNDYW1wSUZLYWtqRzc3TnBRRkFVQlFGQWRDYXVFOGZJSktha2drcHFTQ2FtcElGS2FrZ2twdHlDU21wSUZxYWtnMHB0eUJhbXBJSnFha2dXcHFTQ1NtcEl4TnBRRkFVQlFGQVVCNzFxNGJ5Y2drcHFTQmFtcElKS2FrZ21wcVNDU20zSUZxYWtna3BxU0NTbXBJSnFiY2dXclNrZ2tvVWtZbTBvQ2dLQW9DZ0tBb0QzQ1Z4SGw1QXRUVWtFbE5TUVRVMUpBcFRia0VsTlNRU1UxSkFwVFVrRWxOdVFUVTFKQkpXbEpHSWFVQlFGQVVCUUZBVUJRSHNtcml2TnlCU21wSUpLYWtna3B0eUNhdEt5Q1NtM0lGcUZKQk5XbEpCSlRVa0VsTnVSaUdsQVVCUUZBVUJRRkFVQlFIckVyalBQeUNhbXBJSktha2dtcHFTQmF0TnlDU2hTUVRVMUpBdFdsSkJKUTNJek5wUUZBVUJRRkFVQlFGQVVCUUhwMnJqdWprRWxhVWtDbE5TUVRVMjVCSlRVa0VsQ2tnV3JTa2drcHFTTXdhZ0tBb0NnS0FvQ2dLQW9DZ0tBOUVsUWRQSUZxMHBJSktha2dtb2JrQzFhVWtFbE5TUVNVMUpHWU5RRkFVQlFGQVVCUUZBVUJRRkFVQjl4cWs2dVFUVTFKQXBUeFNRVFVOeUJhdEtTRFNtcEl6QnFBb0NnS0FvQ2dLQW9DZ0tBb0NnS0ErdTFUZGZJRktjVWtFMU51UVRVMUpCTFpxU013YWdLQW9DZ0tBb0NnS0FvQ2dLQW9DZ0tBLzlrPSIgaGVpZ2h0PSIyMTRweCIgd2lkdGg9IjE1M3B4IiBpZD0iX0ltYWdlNCIvPiYjeGE7ICAgICAgICA8bGluZWFyR3JhZGllbnQgZ3JhZGllbnRUcmFuc2Zvcm09Im1hdHJpeCgtMzkuMzQwMywxMzcuNDIzLC0xMzcuNDIzLC0zOS4zNDAzLDU0NS41MjMsNTczLjI0NikiIGdyYWRpZW50VW5pdHM9InVzZXJTcGFjZU9uVXNlIiB5Mj0iMCIgeDI9IjEiIHkxPSIwIiB4MT0iMCIgaWQ9Il9MaW5lYXI1Ij48c3RvcCBzdHlsZT0ic3RvcC1jb2xvcjpyZ2IoMjU1LDIwMCw0MSk7c3RvcC1vcGFjaXR5OjEiIG9mZnNldD0iMCIvPjxzdG9wIHN0eWxlPSJzdG9wLWNvbG9yOnJnYigyNTUsNzMsMik7c3RvcC1vcGFjaXR5OjEiIG9mZnNldD0iMSIvPjwvbGluZWFyR3JhZGllbnQ+JiN4YTsgICAgICAgIDxsaW5lYXJHcmFkaWVudCBncmFkaWVudFRyYW5zZm9ybT0ibWF0cml4KDEuMDExMTMsLTY4LjIwNTQsNjguMjA1NCwxLjAxMTEzLDQ4Mi45OTYsNzQxLjQ2MykiIGdyYWRpZW50VW5pdHM9InVzZXJTcGFjZU9uVXNlIiB5Mj0iMCIgeDI9IjEiIHkxPSIwIiB4MT0iMCIgaWQ9Il9MaW5lYXI2Ij48c3RvcCBzdHlsZT0ic3RvcC1jb2xvcjp3aGl0ZTtzdG9wLW9wYWNpdHk6MSIgb2Zmc2V0PSIwIi8+PHN0b3Agc3R5bGU9InN0b3AtY29sb3I6cmdiKDE3OSwxNzksMTc5KTtzdG9wLW9wYWNpdHk6MSIgb2Zmc2V0PSIxIi8+PC9saW5lYXJHcmFkaWVudD4mI3hhOyAgICAgICAgPGxpbmVhckdyYWRpZW50IGdyYWRpZW50VHJhbnNmb3JtPSJtYXRyaXgoLTcuMTM1OTksLTM0LjExNywzNC4xMTcsLTcuMTM1OTksNTc4Ljc5Myw5MjIuMTQ0KSIgZ3JhZGllbnRVbml0cz0idXNlclNwYWNlT25Vc2UiIHkyPSIwIiB4Mj0iMSIgeTE9IjAiIHgxPSIwIiBpZD0iX0xpbmVhcjciPjxzdG9wIHN0eWxlPSJzdG9wLWNvbG9yOnJnYigxNjQsMTY0LDE2NCk7c3RvcC1vcGFjaXR5OjEiIG9mZnNldD0iMCIvPjxzdG9wIHN0eWxlPSJzdG9wLWNvbG9yOnJnYigxMDYsMTA2LDEwNik7c3RvcC1vcGFjaXR5OjEiIG9mZnNldD0iMSIvPjwvbGluZWFyR3JhZGllbnQ+JiN4YTsgICAgPC9kZWZzPiYjeGE7PC9zdmc+;" vertex="1" parent="1">
          <mxGeometry x="1440" y="199.99999999999997" width="50" height="50" as="geometry" />
        </mxCell>
        <mxCell id="h2_7Q08Zruv0tOP9LdHY-8" value="" style="shape=image;verticalLabelPosition=bottom;labelBackgroundColor=default;verticalAlign=top;aspect=fixed;imageAspect=0;image=data:image/svg+xml,PHN2ZyB4bWxucz0iaHR0cDovL3d3dy53My5vcmcvMjAwMC9zdmciIHdpZHRoPSIyNTYiIHZpZXdCb3g9IjAgMCAyNCAyNCIgc3R5bGU9ImZsZXg6bm9uZTtsaW5lLWhlaWdodDoxIiBoZWlnaHQ9IjI1NiIgZmlsbC1ydWxlPSJldmVub2RkIiBmaWxsPSJjdXJyZW50Q29sb3IiPjx0aXRsZT5Nb2RlbENvbnRleHRQcm90b2NvbDwvdGl0bGU+PHBhdGggZD0iTTE1LjY4OCAyLjM0M2EyLjU4OCAyLjU4OCAwIDAwLTMuNjEgMGwtOS42MjYgOS40NGEuODYzLjg2MyAwIDAxLTEuMjAzIDAgLjgyMy44MjMgMCAwMTAtMS4xOGw5LjYyNi05LjQ0YTQuMzEzIDQuMzEzIDAgMDE2LjAxNiAwIDQuMTE2IDQuMTE2IDAgMDExLjIwNCAzLjU0IDQuMyA0LjMgMCAwMTMuNjA5IDEuMThsLjA1LjA1YTQuMTE1IDQuMTE1IDAgMDEwIDUuOWwtOC43MDYgOC41MzdhLjI3NC4yNzQgMCAwMDAgLjM5M2wxLjc4OCAxLjc1NGEuODIzLjgyMyAwIDAxMCAxLjE4Ljg2My44NjMgMCAwMS0xLjIwMyAwbC0xLjc4OC0xLjc1M2ExLjkyIDEuOTIgMCAwMTAtMi43NTRsOC43MDYtOC41MzhhMi40NyAyLjQ3IDAgMDAwLTMuNTRsLS4wNS0uMDQ5YTIuNTg4IDIuNTg4IDAgMDAtMy42MDctLjAwM2wtNy4xNzIgNy4wMzQtLjAwMi4wMDItLjA5OC4wOTdhLjg2My44NjMgMCAwMS0xLjIwNCAwIC44MjMuODIzIDAgMDEwLTEuMThsNy4yNzMtNy4xMzNhMi40NyAyLjQ3IDAgMDAtLjAwMy0zLjUzN3oiLz48cGF0aCBkPSJNMTQuNDg1IDQuNzAzYS44MjMuODIzIDAgMDAwLTEuMTguODYzLjg2MyAwIDAwLTEuMjA0IDBsLTcuMTE5IDYuOTgyYTQuMTE1IDQuMTE1IDAgMDAwIDUuOSA0LjMxNCA0LjMxNCAwIDAwNi4wMTYgMGw3LjEyLTYuOTgyYS44MjMuODIzIDAgMDAwLTEuMTguODYzLjg2MyAwIDAwLTEuMjA0IDBsLTcuMTE5IDYuOTgyYTIuNTg4IDIuNTg4IDAgMDEtMy42MSAwIDIuNDcgMi40NyAwIDAxMC0zLjU0bDcuMTItNi45ODJ6Ii8+PC9zdmc+;" vertex="1" parent="1">
          <mxGeometry x="1400" y="123.40000000000003" width="50" height="50" as="geometry" />
        </mxCell>
        <mxCell id="h2_7Q08Zruv0tOP9LdHY-12" value="" style="group;aspect=fixed;" vertex="1" connectable="0" parent="1">
          <mxGeometry x="1325" y="340" width="50" height="14" as="geometry" />
        </mxCell>
        <mxCell id="h2_7Q08Zruv0tOP9LdHY-11" value="" style="rounded=1;whiteSpace=wrap;html=1;fillColor=#000000;strokeColor=none;aspect=fixed;" vertex="1" parent="h2_7Q08Zruv0tOP9LdHY-12">
          <mxGeometry width="50" height="14" as="geometry" />
        </mxCell>
        <mxCell id="h2_7Q08Zruv0tOP9LdHY-7" value="" style="shape=image;verticalLabelPosition=bottom;labelBackgroundColor=default;verticalAlign=top;aspect=fixed;imageAspect=0;image=data:image/svg+xml,PHN2ZyB4bWxucz0iaHR0cDovL3d3dy53My5vcmcvMjAwMC9zdmciIGZpbGw9Im5vbmUiIHZpZXdCb3g9IjAgMCAyNDEgNjQiIGhlaWdodD0iNjQiIHdpZHRoPSIyNDEiPiYjeGE7PGcgY2xpcC1wYXRoPSJ1cmwoI2NsaXAwXzEwMzQ5XzY2OTA0KSI+JiN4YTs8cGF0aCBmaWxsPSIjREMyNDRDIiBkPSJNMjguMjEzNiAwTDAuNSAxNlY0OEwyOC4yMTM2IDY0TDM4LjYwNTYgNThWNDZMMjguMjEzNiA1MkwxMC44OTM2IDQyVjIyTDI4LjIxMzYgMTJMNDUuNTMzNiAyMlY2Mkw1NS45MjcyIDU2VjE2TDI4LjIxMzYgMFoiLz4mI3hhOzxwYXRoIGZpbGw9IiNEQzI0NEMiIGQ9Ik0xNy44MjE2IDI2VjM4TDI4LjIxMzYgNDRMMzguNjA1NiAzOFYyNkwyOC4yMTM2IDIwTDE3LjgyMTYgMjZaIi8+JiN4YTs8cGF0aCBmaWxsPSIjOUUwRDM4IiBkPSJNMzguNjA1NiA0NlY1OEwyOC4yMTM2IDY0VjUyTDM4LjYwNTYgNDZaIi8+JiN4YTs8cGF0aCBmaWxsPSIjOUUwRDM4IiBkPSJNNTUuOTI3MiAxNlY1Nkw0NS41MzM2IDYyVjIyTDU1LjkyNzIgMTZaIi8+JiN4YTs8cGF0aCBmaWxsPSIjRkY1MTZCIiBkPSJNNTUuOTI3MiAxNkw0NS41MzM2IDIyTDI4LjIxMzYgMTJMMTAuODkzNiAyMkwwLjUgMTZMMjguMjEzNiAwTDU1LjkyNzIgMTZaIi8+JiN4YTs8cGF0aCBmaWxsPSIjREMyNDRDIiBkPSJNMjguMjEzNiA1MlY2NEwwLjUgNDhWMTZMMTAuODkzNiAyMlY0MkwyOC4yMTM2IDUyWiIvPiYjeGE7PHBhdGggZmlsbD0iI0ZGNTE2QiIgZD0iTTM4LjYwNTYgMjZMMjguMjEzNiAzMkwxNy44MjE2IDI2TDI4LjIxMzYgMjBMMzguNjA1NiAyNloiLz4mI3hhOzxwYXRoIGZpbGw9IiNEQzI0NEMiIGQ9Ik0yOC4yMTM2IDMyVjQ0TDE3LjgyMTYgMzhWMjZMMjguMjEzNiAzMloiLz4mI3hhOzxwYXRoIGZpbGw9IiM5RTBEMzgiIGQ9Ik0zOC42MDU2IDI2VjM4TDI4LjIxMzYgNDRWMzJMMzguNjA1NiAyNloiLz4mI3hhOzxwYXRoIGZpbGw9IndoaXRlIiBkPSJNMTA2LjU2NSA0MC4xNzI4QzEwNy4zOTQgMzcuODcyIDEwNy44MSAzNS4yIDEwNy44MSAzMi4xNTY4VjMyQzEwNy44MSAyNy44MTQ0IDEwNy4wNTggMjQuMjk0NCAxMDUuNTU0IDIxLjQ0QzEwNC4wNSAxOC41ODU2IDEwMS45MjggMTYuNDMyIDk5LjE5ODggMTQuOTc5MkM5Ni40NjYgMTMuNTI2NCA5My4yNDY4IDEyLjggODkuNTQ3NiAxMi44Qzg2Ljc3OTYgMTIuOCA4NC4yNjEyIDEzLjIwNjQgODEuOTk4OCAxNC4wMTkyQzc5LjczMzIgMTQuODMyIDc3LjgxMzIgMTYuMDUxMiA3Ni4yMzg4IDE3LjY3NjhDNzQuNjY0NCAxOS4zMDI0IDczLjQ0NTIgMjEuMzA4OCA3Mi41ODEyIDIzLjY5NkM3MS43MTcyIDI2LjA4MzIgNzEuMjg1MiAyOC44NTEyIDcxLjI4NTIgMzJWMzIuMTU2OEM3MS4yODUyIDM2LjIwNDggNzIuMDIxMiAzOS42MDMyIDczLjQ5IDQyLjM1MkM3NC45NTg4IDQ1LjEwNCA3Ny4wNjEyIDQ3LjE3NzYgNzkuNzk0IDQ4LjU3OTJDODIuNTI2OCA0OS45ODA4IDg1Ljc3OCA1MC42ODE2IDg5LjU1MDggNTAuNjgxNkgxMTIuMDRWNDQuNzY0OEgxMDQuMDUzQzEwNS4xMDYgNDMuNDQgMTA1Ljk0NCA0MS45MTA0IDEwNi41NzUgNDAuMTcyOEgxMDYuNTY1Wk04NS4wODM2IDQ0LjA2NEM4My43Njg0IDQzLjU5NjggODIuNjQ1MiA0Mi45MTUyIDgxLjcxMDggNDIuMDEyOEM4MC43NzY0IDQxLjExMzYgODAuMDc1NiA0MC4wMzIgNzkuNjA4NCAzOC43NjhDNzkuMTQxMiAzNy41MDQgNzguOTA3NiAzNi4wNjA4IDc4LjkwNzYgMzQuNDM1MlYyOS4zNTA0Qzc4LjkwNzYgMjcuMzQ0IDc5LjI5OCAyNS41NzEyIDgwLjA3NTYgMjQuMDMyQzgwLjg1MzIgMjIuNDkyOCA4Mi4wMzcyIDIxLjI4MzIgODMuNjMwOCAyMC40Qzg1LjIyMTIgMTkuNTE2OCA4Ny4yMTE2IDE5LjA3NTIgODkuNTk4OCAxOS4wNzUyQzkxLjM2MiAxOS4wNzUyIDkyLjkyMDQgMTkuMzI4IDk0LjI2NzYgMTkuODI3MkM5NS42MTggMjAuMzI5NiA5Ni43MzE2IDIxLjA0IDk3LjYxNDggMjEuOTU1MkM5OC40OTggMjIuODczNiA5OS4xNTQgMjMuOTYxNiA5OS41ODYgMjUuMjI1NkMxMDAuMDE4IDI2LjQ4OTYgMTAwLjIzNiAyNy44NjI0IDEwMC4yMzYgMjkuMzUwNFYzNC40MzUyQzEwMC4yMzYgMzYuNTgyNCA5OS44MTk1IDM4LjQyMjQgOTguOTkwOCAzOS45NjE2Qzk4LjE1ODggNDEuNTAwOCA5Ni45NDkyIDQyLjY4NDggOTUuMzU4OCA0My41MTY4QzkzLjc2ODQgNDQuMzQ1NiA5MS44NDg0IDQ0Ljc2MTYgODkuNTk4OCA0NC43NjE2Qzg3LjkwMjggNDQuNzYxNiA4Ni4zOTg4IDQ0LjUyOCA4NS4wODM2IDQ0LjA2MDhWNDQuMDY0WiIvPiYjeGE7PHBhdGggZmlsbD0id2hpdGUiIGQ9Ik0xMzIuNTU2IDI3LjM4MjRDMTMxLjg5NiAyNS44OTQ0IDEzMC44MTggMjQuNzEwNCAxMjkuMzExIDIzLjgyNzJDMTI3LjgwNyAyMi45NDQgMTI2LjEyIDIyLjUwMjQgMTI0LjI1MiAyMi41MDI0QzEyMi42MjYgMjIuNTAyNCAxMjEuMTU0IDIyLjc4MDggMTE5Ljg0MiAyMy4zMzEyQzExOC41MjcgMjMuODg0OCAxMTcuNDA0IDI0LjcyMzIgMTE2LjQ2OSAyNS44NDk2QzExNS41MzUgMjYuOTcyOCAxMTQuODI0IDI4LjQwOTYgMTE0LjM0MSAzMC4xNTY4QzExMy44NTUgMzEuOTA0IDExMy42MTUgMzMuOTU1MiAxMTMuNjE1IDM2LjMwNzJWMzcuMjkyOEMxMTMuNjE1IDQwLjEzMTIgMTEzLjk5NiA0Mi41OTUyIDExNC43NTcgNDQuNjg4QzExNS41MTkgNDYuNzgwOCAxMTYuNjg3IDQ4LjM5MDQgMTE4LjI2MSA0OS41MTM2QzExOS44MzYgNTAuNjM2OCAxMjEuODQ4IDUxLjIgMTI0LjMwNiA1MS4yQzEyNi4xNzUgNTEuMiAxMjcuODUyIDUwLjc2OCAxMjkuMzQgNDkuOTA0QzEzMC44MjggNDkuMDQgMTMxLjkgNDcuODQ2NCAxMzIuNTU2IDQ2LjMyMzJIMTMyLjkxN0wxMzMuMjgyIDUwLjY4MTZIMTM5LjcxN1YxMi44NTEySDEzMi45MlYyNy4zODI0SDEzMi41NTZaTTEzMi45MTcgMzkuMTEwNEMxMzIuOTE3IDQxLjE1MiAxMzIuMzczIDQyLjc1MiAxMzEuMjgyIDQzLjkxMDRDMTMwLjE5MSA0NS4wNjg4IDEyOC43MzIgNDUuNjQ4IDEyNi44OTggNDUuNjQ4QzEyNS42NTMgNDUuNjQ4IDEyNC41NzIgNDUuNDA4IDEyMy42NTMgNDQuOTIxNkMxMjIuNzM1IDQ0LjQzODQgMTIyLjAzNCA0My43MTg0IDEyMS41NTEgNDIuNzY4QzEyMS4wNjQgNDEuODE3NiAxMjAuODI0IDQwLjY2NTYgMTIwLjgyNCAzOS4zMTg0VjM0LjM4NzJDMTIwLjgyNCAzMy4wMzY4IDEyMS4wNjggMzEuODk3NiAxMjEuNTUxIDMwLjk2MzJDMTIyLjAzNCAzMC4wMjg4IDEyMi43MzUgMjkuMzEyIDEyMy42NTMgMjguODA5NkMxMjQuNTY4IDI4LjMwNzIgMTI1LjY1IDI4LjA1NzYgMTI2Ljg5OCAyOC4wNTc2QzEyOC4xNDYgMjguMDU3NiAxMjkuMjA4IDI4LjMxNjggMTMwLjA4OCAyOC44MzUyQzEzMC45NzIgMjkuMzUzNiAxMzEuNjYzIDMwLjA5OTIgMTMyLjE2NSAzMS4wNjU2QzEzMi42NjggMzIuMDM1MiAxMzIuOTE3IDMzLjE5MzYgMTMyLjkxNyAzNC41NDA4VjM5LjExMDRaIi8+JiN4YTs8cGF0aCBmaWxsPSJ3aGl0ZSIgZD0iTTE4Ni40MTIgMzIuMjU5MkMxODYuNDEyIDMwLjA0NDggMTg1Ljk1NCAyOC4yMzA0IDE4NS4wMzYgMjYuODA5NkMxODQuMTE3IDI1LjM5MiAxODIuODEyIDI0LjMyIDE4MS4xMTkgMjMuNTkzNkMxNzkuNDIzIDIyLjg2NzIgMTc3LjM0OSAyMi41MDI0IDE3NC44OTIgMjIuNTAyNEMxNzIuMjk2IDIyLjUwMjQgMTcwLjA4MiAyMi44NzM2IDE2OC4yNDggMjMuNjE5MkMxNjYuNDE1IDI0LjM2NDggMTY1LjAwNyAyNS40MzY4IDE2NC4wMTggMjYuODM1MkMxNjMuMDMyIDI4LjIzNjggMTYyLjU0IDI5LjkyMzIgMTYyLjU0IDMxLjg5NDRIMTY4LjY2NEMxNjguNjY0IDMwLjY0OTYgMTY5LjE1NyAyOS42OCAxNzAuMTQzIDI4Ljk4ODhDMTcxLjEyOCAyOC4yOTc2IDE3Mi41MiAyNy45NTIgMTc0LjMxOSAyNy45NTJDMTc1LjQ2MSAyNy45NTIgMTc2LjQyOCAyOC4xMDg4IDE3Ny4yMjQgMjguNDE5MkMxNzguMDIxIDI4LjcyOTYgMTc4LjYyNiAyOS4yMTYgMTc5LjA0MiAyOS44NzJDMTc5LjQ1OCAzMC41MjggMTc5LjY2NiAzMS40MTEyIDE3OS42NjYgMzIuNTE4NFYzMy43NjMyTDE3MS42MjEgMzQuOEMxNzAuMjA0IDM0Ljk3MjggMTY4LjkxNCAzNS4yNzY4IDE2Ny43NTYgMzUuNzA4OEMxNjYuNTk3IDM2LjE0MDggMTY1LjYwMiAzNi43MiAxNjQuNzczIDM3LjQ0NjRDMTYzLjk0NCAzOC4xNzI4IDE2My4zMTEgMzkuMDM2OCAxNjIuODc5IDQwLjA0MTZDMTYyLjQ0NyA0MS4wNDY0IDE2Mi4yMjkgNDIuMjA0OCAxNjIuMjI5IDQzLjUxNjhWNDMuNjczNkMxNjIuMjI5IDQ1Ljk1ODQgMTYzLjAzMiA0Ny43ODI0IDE2NC42NDIgNDkuMTQ4OEMxNjYuMjUyIDUwLjUxNTIgMTY4LjMzNSA1MS4yIDE3MC44OTUgNTEuMkMxNzIuNDUzIDUxLjIgMTczLjg0NSA1MS4wMDE2IDE3NS4wNzEgNTAuNjAxNkMxNzYuMyA1MC4yMDQ4IDE3Ny4zNjIgNDkuNjMyIDE3OC4yNjEgNDguODg5NkMxNzkuMTYgNDguMTQ3MiAxNzkuODM2IDQ3LjI1NDQgMTgwLjI4NCA0Ni4yMTc2SDE4MC44MDJMMTgxLjI2OSA1MC42ODE2SDE5MC4xOTRWNDUuODU2SDE4Ni40MDVWMzIuMjU5MkgxODYuNDEyWk0xNzkuNjY2IDQxLjc1NjhDMTc5LjU2NCA0Mi42NTYgMTc5LjI1IDQzLjQ0MzIgMTc4LjczMiA0NC4xMTg0QzE3OC4yMTMgNDQuNzkzNiAxNzcuNTE5IDQ1LjMyMTYgMTc2LjY1NSA0NS43MDI0QzE3NS43OTEgNDYuMDgzMiAxNzQuODA1IDQ2LjI3MiAxNzMuNjk4IDQ2LjI3MkMxNzIuMjEgNDYuMjcyIDE3MS4wNjggNDUuOTYxNiAxNzAuMjc0IDQ1LjMzNzZDMTY5LjQ3NyA0NC43MTM2IDE2OS4wOCA0My44ODQ4IDE2OS4wOCA0Mi44NDhWNDIuMDcwNEMxNjkuMDggNDAuOTI4IDE2OS41MDMgNDAuMDg5NiAxNzAuMzUxIDM5LjU1MkMxNzEuMTk5IDM5LjAxNzYgMTcyLjM0OCAzOC42NjI0IDE3My44IDM4LjQ4OTZMMTc5LjY2MyAzNy42NjA4VjQxLjc2TDE3OS42NjYgNDEuNzU2OFoiLz4mI3hhOzxwYXRoIGZpbGw9IndoaXRlIiBkPSJNMjE0LjExNyAyMy43MjQ4QzIxMi42OCAyMi45MTIgMjEwLjk3OCAyMi41MDU2IDIwOS4wMDcgMjIuNTA1NkMyMDcuMDM2IDIyLjUwNTYgMjA1LjE5MiAyMi45OTg0IDIwMy42ODggMjMuOTg0QzIwMi4xODQgMjQuOTY5NiAyMDEuMTM4IDI2LjI3NTIgMjAwLjU0OSAyNy45MDA4SDIwMC4wODJMMTk5LjYxNSAyMy4wMjRIMTkzLjI4NVY1MC42ODE2SDIwMC4wODJWMzUuMjcwNEMyMDAuMDgyIDMzLjgxNzYgMjAwLjMyMiAzMi41NDcyIDIwMC44MDggMzEuNDU2QzIwMS4yOTIgMzAuMzY0OCAyMDEuOTkyIDI5LjUyNjQgMjAyLjkxMSAyOC45NDA4QzIwMy44MjYgMjguMzUyIDIwNC45NDMgMjguMDU3NiAyMDYuMjU4IDI4LjA1NzZDMjA3LjQgMjguMDU3NiAyMDguMzc2IDI4LjI1NiAyMDkuMTg5IDI4LjY1MjhDMjEwLjAwMiAyOS4wNDk2IDIxMC42NDIgMjkuNzE1MiAyMTEuMTA5IDMwLjY0OTZDMjExLjU3NiAzMS41ODQgMjExLjgxIDMyLjg4IDIxMS44MSAzNC41NDA4VjUwLjY3ODRIMjE4LjU1NlYzMy42NTc2QzIxOC41NTYgMzEuMTMyOCAyMTguMTc1IDI5LjA0NjQgMjE3LjQxMyAyNy40MDQ4QzIxNi42NTIgMjUuNzYzMiAyMTUuNTU0IDI0LjUzNDQgMjE0LjExNyAyMy43MjE2VjIzLjcyNDhaIi8+JiN4YTs8cGF0aCBmaWxsPSJ3aGl0ZSIgZD0iTTI0MC40OTUgMjguNTIxNlYyMy4wMjA4SDIzMy4zODRWMTQuMjQ5NkgyMjYuNTg4VjIzLjAyMDhIMjIwLjQxMlYyOC41MjE2SDIyNi41ODhWNDUuMTc3NkMyMjYuNTg4IDQ2LjgwMzIgMjI3LjAyIDQ4LjEyOCAyMjcuODg0IDQ5LjE0ODhDMjI4Ljc0OCA1MC4xNjk2IDIzMC4xNjUgNTAuNjc4NCAyMzIuMTQgNTAuNjc4NEgyNDAuMTg0VjQ1LjMzNDRIMjMzLjM4OFYyOC41MjE2SDI0MC40OThIMjQwLjQ5NVoiLz4mI3hhOzxwYXRoIGZpbGw9IndoaXRlIiBkPSJNMTU4LjE5NCAyMi43MTA0QzE1Ni4zOTYgMjIuNzEwNCAxNTQuNzk2IDIzLjEwMDggMTUzLjM5NCAyMy44Nzg0QzE1MS45OTIgMjQuNjU2IDE1MC45ODEgMjUuOTI2NCAxNTAuMzU3IDI3LjY5MjhIMTUwLjE0OUwxNDkuODM5IDIzLjA3NTJIMTQzLjk3NlY1MC42ODE2SDE1MC40NjNWMzUuNTgwOEMxNTAuNTMzIDM0LjEyOCAxNTAuODUzIDMyLjg5OTIgMTUxLjQyMyAzMS44OTc2QzE1MS45OTIgMzAuODk2IDE1Mi44MzEgMzAuMTI0OCAxNTMuOTM4IDI5LjU4NzJDMTU1LjA0NSAyOS4wNDk2IDE1Ni40MjggMjguNzg0IDE1OC4wODggMjguNzg0QzE1OC40MzQgMjguNzg0IDE1OC43NTQgMjguNzkzNiAxNTkuMDQ4IDI4LjgwOTZDMTU5LjM0MyAyOC44Mjg4IDE1OS41OTIgMjguODM1MiAxNTkuOCAyOC44MzUyVjIyLjcxMDRIMTU4LjE5MUgxNTguMTk0WiIvPiYjeGE7PC9nPiYjeGE7PGRlZnM+JiN4YTs8Y2xpcFBhdGggaWQ9ImNsaXAwXzEwMzQ5XzY2OTA0Ij4mI3hhOzxyZWN0IHRyYW5zZm9ybT0idHJhbnNsYXRlKDAuNSkiIGZpbGw9IndoaXRlIiBoZWlnaHQ9IjY0IiB3aWR0aD0iMjQwIi8+JiN4YTs8L2NsaXBQYXRoPiYjeGE7PC9kZWZzPiYjeGE7PC9zdmc+;fontColor=#000000;" vertex="1" parent="h2_7Q08Zruv0tOP9LdHY-12">
          <mxGeometry x="0.9" y="0.6000000000000001" width="50" height="13.28" as="geometry" />
        </mxCell>
        <mxCell id="h2_7Q08Zruv0tOP9LdHY-13" value="" style="shape=image;verticalLabelPosition=bottom;labelBackgroundColor=default;verticalAlign=top;aspect=fixed;imageAspect=0;image=data:image/svg+xml,PHN2ZyB4bWxucz0iaHR0cDovL3d3dy53My5vcmcvMjAwMC9zdmciIHdpZHRoPSI5Mm1tIiBoZWlnaHQ9IjkybW0iIHZpZXdCb3g9IjAgMCA5MiA5MiIgdmVyc2lvbj0iMS4xIiBpZD0ic3ZnOCI+JiN4YTsgIDxkZWZzIGlkPSJkZWZzMiIvPiYjeGE7ICA8bWV0YWRhdGEgaWQ9Im1ldGFkYXRhNSI+JiN4YTsgICAgJiN4YTsgICAgICAmI3hhOyAgICAgICAgaW1hZ2Uvc3ZnK3htbCYjeGE7ICAgICAgICAmI3hhOyAgICAgICAgJiN4YTsgICAgICAmI3hhOyAgICAmI3hhOyAgPC9tZXRhZGF0YT4mI3hhOyAgPGcgaWQ9ImxheWVyMSIgdHJhbnNmb3JtPSJ0cmFuc2xhdGUoLTQwLjkyMTMwMywtMTcuNDE2NTI2KSI+JiN4YTsgICAgPGNpcmNsZSBpZD0icGF0aDM3MTMiIGN4PSI3NSIgY3k9IjkyIiBzdHlsZT0iZmlsbDpub25lO3N0cm9rZTojMDAwMDAwO3N0cm9rZS13aWR0aDoxMjtzdHJva2UtbWl0ZXJsaW1pdDo0O3N0cm9rZS1kYXNoYXJyYXk6bm9uZTtzdHJva2Utb3BhY2l0eToxIiByPSIwIi8+JiN4YTsgICAgPGNpcmNsZSBzdHlsZT0iZmlsbDpub25lO2ZpbGwtb3BhY2l0eToxO3N0cm9rZTojMzA1MGZmO3N0cm9rZS13aWR0aDoxMDtzdHJva2UtbWl0ZXJsaW1pdDo0O3N0cm9rZS1kYXNoYXJyYXk6bm9uZTtzdHJva2Utb3BhY2l0eToxIiBpZD0icGF0aDgzNCIgY3g9Ijc1LjkyMTMwMyIgY3k9IjUzLjkwMjU1NyIgcj0iMzAiLz4mI3hhOyAgICA8cGF0aCBzdHlsZT0iZmlsbDpub25lO2ZpbGwtb3BhY2l0eToxO3N0cm9rZTojMzA1MGZmO3N0cm9rZS13aWR0aDo1O3N0cm9rZS1taXRlcmxpbWl0OjQ7c3Ryb2tlLWRhc2hhcnJheTpub25lO3N0cm9rZS1vcGFjaXR5OjEiIGlkPSJwYXRoODUyIiBkPSJtIDY3LjUxNDg0OSwzNy45MTUyNCBhIDE4LDE4IDAgMCAxIDIxLjA1MTQ3NSwzLjMxMjQwNyAxOCwxOCAwIDAgMSAzLjEzNzMxMiwyMS4wNzgyODIiLz4mI3hhOyAgICA8cmVjdCBzdHlsZT0ib3BhY2l0eToxO2ZpbGw6IzMwNTBmZjtmaWxsLW9wYWNpdHk6MTtzdHJva2U6bm9uZTtzdHJva2Utd2lkdGg6ODtzdHJva2UtbWl0ZXJsaW1pdDo0O3N0cm9rZS1kYXNoYXJyYXk6bm9uZTtzdHJva2Utb3BhY2l0eToxIiBpZD0icmVjdDkxMiIgd2lkdGg9IjE4Ljg0NjMzMSIgaGVpZ2h0PSIzOS45NjMzMDMiIHg9IjMuNzA2MzUyOSIgeT0iMTIyLjA4OTk1IiByeT0iMS44NjY5MTA1ZS0xMyIgdHJhbnNmb3JtPSJyb3RhdGUoLTQ2LjIzNDcwOSkiLz4mI3hhOyAgPC9nPiYjeGE7PC9zdmc+;" vertex="1" parent="1">
          <mxGeometry x="1440" y="268.33000000000004" width="50" height="50" as="geometry" />
        </mxCell>
        <mxCell id="h2_7Q08Zruv0tOP9LdHY-14" value="&lt;b&gt;LLM&lt;/b&gt;" style="ellipse;whiteSpace=wrap;html=1;aspect=fixed;" vertex="1" parent="1">
          <mxGeometry x="990" y="148.33000000000004" width="50" height="33.33" as="geometry" />
        </mxCell>
        <mxCell id="h2_7Q08Zruv0tOP9LdHY-49" style="edgeStyle=orthogonalEdgeStyle;rounded=0;orthogonalLoop=1;jettySize=auto;html=1;entryX=0.25;entryY=0;entryDx=0;entryDy=0;exitX=0.5;exitY=1;exitDx=0;exitDy=0;flowAnimation=1;" edge="1" parent="1" source="h2_7Q08Zruv0tOP9LdHY-16" target="h2_7Q08Zruv0tOP9LdHY-1">
          <mxGeometry relative="1" as="geometry" />
        </mxCell>
        <mxCell id="h2_7Q08Zruv0tOP9LdHY-16" value="" style="image;html=1;image=img/lib/clip_art/computers/Laptop_128x128.png" vertex="1" parent="1">
          <mxGeometry x="1170" y="30" width="80" height="80" as="geometry" />
        </mxCell>
        <mxCell id="h2_7Q08Zruv0tOP9LdHY-35" style="edgeStyle=orthogonalEdgeStyle;rounded=0;orthogonalLoop=1;jettySize=auto;html=1;entryX=0;entryY=0.5;entryDx=0;entryDy=0;flowAnimation=1;endArrow=none;endFill=0;startArrow=classic;startFill=1;flowAnimationDirection=reverse;" edge="1" parent="1" source="h2_7Q08Zruv0tOP9LdHY-17" target="h2_7Q08Zruv0tOP9LdHY-1">
          <mxGeometry relative="1" as="geometry" />
        </mxCell>
        <mxCell id="h2_7Q08Zruv0tOP9LdHY-17" value="" style="shape=image;verticalLabelPosition=bottom;labelBackgroundColor=default;verticalAlign=top;aspect=fixed;imageAspect=0;image=data:image/svg+xml,PHN2ZyB4bWxucz0iaHR0cDovL3d3dy53My5vcmcvMjAwMC9zdmciIHhtbG5zOnhsaW5rPSJodHRwOi8vd3d3LnczLm9yZy8xOTk5L3hsaW5rIiBzdHJva2UtbWl0ZXJsaW1pdD0iMTAiIHN0cm9rZS1saW5lY2FwPSJzcXVhcmUiIHN0cm9rZT0ibm9uZSIgZmlsbD0ibm9uZSIgdmlld0JveD0iMC4wIDAuMCA5Ni4wIDk2LjAiIHZlcnNpb249IjEuMSI+PGNsaXBQYXRoIGlkPSJnMzFlMjEyMzIzMTRfMF8zMy4wIj48cGF0aCBjbGlwLXJ1bGU9Im5vbnplcm8iIGQ9Im0wIDBsOTYuMCAwbDAgOTYuMGwtOTYuMCAwbDAgLTk2LjB6Ii8+PC9jbGlwUGF0aD48ZyBjbGlwLXBhdGg9InVybCgjZzMxZTIxMjMyMzE0XzBfMzMuMCkiPjxwYXRoIGZpbGwtcnVsZT0iZXZlbm9kZCIgZD0ibTAgMGw5Ni4wIDBsMCA5Ni4wbC05Ni4wIDB6IiBmaWxsPSIjZmZmZmZmIi8+PHBhdGggZmlsbC1ydWxlPSJldmVub2RkIiBkPSJtNDEuMDQ5NjEgODAuMjcxMzI0bDEuODg5NzYyOSAwbDAgMi4zMzA3MTE0bC0xLjg4OTc2MjkgMHoiIGZpbGw9IiNkOWQ5ZDkiLz48cGF0aCBmaWxsLXJ1bGU9ImV2ZW5vZGQiIGQ9Im00Mi4yMjE4NTUgODEuNDUxNDVsMS44ODk3NjI5IDBsMCAyLjMzMDcwMzdsLTEuODg5NzYyOSAweiIgZmlsbD0iI2Q5ZDlkOSIvPjxnIGZpbHRlcj0idXJsKCNzaGFkb3dGaWx0ZXItZzMxZTIxMjMyMzE0XzBfMzMuMSkiPjx1c2UgdHJhbnNmb3JtPSJtYXRyaXgoMS4wIDAuMCAwLjAgMS4wIDAuMCAyLjApIiB4bGluazpocmVmPSIjZzMxZTIxMjMyMzE0XzBfMzMuMSIvPjwvZz48ZGVmcz48ZmlsdGVyIGZpbHRlclVuaXRzPSJ1c2VyU3BhY2VPblVzZSIgaWQ9InNoYWRvd0ZpbHRlci1nMzFlMjEyMzIzMTRfMF8zMy4xIj48ZmVHYXVzc2lhbkJsdXIgcmVzdWx0PSJibHVyIiBzdGREZXZpYXRpb249IjIuMCIgaW49IlNvdXJjZUFscGhhIi8+PGZlQ29tcG9uZW50VHJhbnNmZXIgY29sb3ItaW50ZXJwb2xhdGlvbi1maWx0ZXJzPSJzUkdCIiBpbj0iYmx1ciI+PGZlRnVuY1IgdHlwZT0ibGluZWFyIi8+PGZlRnVuY0cgdHlwZT0ibGluZWFyIi8+PGZlRnVuY0IgdHlwZT0ibGluZWFyIi8+PGZlRnVuY0EgdHlwZT0ibGluZWFyIi8+PC9mZUNvbXBvbmVudFRyYW5zZmVyPjwvZmlsdGVyPjwvZGVmcz48ZyBpZD0iZzMxZTIxMjMyMzE0XzBfMzMuMSI+PHBhdGggZmlsbC1ydWxlPSJldmVub2RkIiBkPSJtNDIuMjI0MTcgMjguNDcwNDM0bDAgNTUuMzA3MDgzbC0yNy42NTM1NDMgLTU1LjMwNzA4M3oiIGZpbGw9IiNkOWQ5ZDkiLz48L2c+PGcgZmlsdGVyPSJ1cmwoI3NoYWRvd0ZpbHRlci1nMzFlMjEyMzIzMTRfMF8zMy4yKSI+PHVzZSB0cmFuc2Zvcm09Im1hdHJpeCgxLjAgMC4wIDAuMCAxLjAgMC4wIDIuMCkiIHhsaW5rOmhyZWY9IiNnMzFlMjEyMzIzMTRfMF8zMy4yIi8+PC9nPjxkZWZzPjxmaWx0ZXIgZmlsdGVyVW5pdHM9InVzZXJTcGFjZU9uVXNlIiBpZD0ic2hhZG93RmlsdGVyLWczMWUyMTIzMjMxNF8wXzMzLjIiPjxmZUdhdXNzaWFuQmx1ciByZXN1bHQ9ImJsdXIiIHN0ZERldmlhdGlvbj0iMi4wIiBpbj0iU291cmNlQWxwaGEiLz48ZmVDb21wb25lbnRUcmFuc2ZlciBjb2xvci1pbnRlcnBvbGF0aW9uLWZpbHRlcnM9InNSR0IiIGluPSJibHVyIj48ZmVGdW5jUiB0eXBlPSJsaW5lYXIiLz48ZmVGdW5jRyB0eXBlPSJsaW5lYXIiLz48ZmVGdW5jQiB0eXBlPSJsaW5lYXIiLz48ZmVGdW5jQSB0eXBlPSJsaW5lYXIiLz48L2ZlQ29tcG9uZW50VHJhbnNmZXI+PC9maWx0ZXI+PC9kZWZzPjxnIGlkPSJnMzFlMjEyMzIzMTRfMF8zMy4yIj48cGF0aCBmaWxsLXJ1bGU9ImV2ZW5vZGQiIGQ9Im00Mi4yMjMwMzggODMuNzc3NTJsMjEuNzI5NjU2IDBsMTguNjUzNTQ1IC03MC4zODU4MjZsLTI1LjU3NDgwMiAxMy40NjE5NDN6IiBmaWxsPSIjZDlkOWQ5Ii8+PC9nPjxnIGZpbHRlcj0idXJsKCNzaGFkb3dGaWx0ZXItZzMxZTIxMjMyMzE0XzBfMzMuMykiPjx1c2UgdHJhbnNmb3JtPSJtYXRyaXgoMS4wIDAuMCAwLjAgMS4wIDAuMCAyLjApIiB4bGluazpocmVmPSIjZzMxZTIxMjMyMzE0XzBfMzMuMyIvPjwvZz48ZGVmcz48ZmlsdGVyIGZpbHRlclVuaXRzPSJ1c2VyU3BhY2VPblVzZSIgaWQ9InNoYWRvd0ZpbHRlci1nMzFlMjEyMzIzMTRfMF8zMy4zIj48ZmVHYXVzc2lhbkJsdXIgcmVzdWx0PSJibHVyIiBzdGREZXZpYXRpb249IjIuMCIgaW49IlNvdXJjZUFscGhhIi8+PGZlQ29tcG9uZW50VHJhbnNmZXIgY29sb3ItaW50ZXJwb2xhdGlvbi1maWx0ZXJzPSJzUkdCIiBpbj0iYmx1ciI+PGZlRnVuY1IgdHlwZT0ibGluZWFyIi8+PGZlRnVuY0cgdHlwZT0ibGluZWFyIi8+PGZlRnVuY0IgdHlwZT0ibGluZWFyIi8+PGZlRnVuY0EgdHlwZT0ibGluZWFyIi8+PC9mZUNvbXBvbmVudFRyYW5zZmVyPjwvZmlsdGVyPjwvZGVmcz48ZyBpZD0iZzMxZTIxMjMyMzE0XzBfMzMuMyI+PHBhdGggZmlsbC1ydWxlPSJldmVub2RkIiBkPSJtNDEuMDQ3NyAyNy4yOTM5NjJsMCA1NS4zMDcwOWwtMjcuNjUzNTQyIC01NS4zMDcwOXoiIGZpbGw9IiNmZGI1MTUiLz48L2c+PGcgZmlsdGVyPSJ1cmwoI3NoYWRvd0ZpbHRlci1nMzFlMjEyMzIzMTRfMF8zMy40KSI+PHVzZSB0cmFuc2Zvcm09Im1hdHJpeCgxLjAgMC4wIDAuMCAxLjAgMC4wIDIuMCkiIHhsaW5rOmhyZWY9IiNnMzFlMjEyMzIzMTRfMF8zMy40Ii8+PC9nPjxkZWZzPjxmaWx0ZXIgZmlsdGVyVW5pdHM9InVzZXJTcGFjZU9uVXNlIiBpZD0ic2hhZG93RmlsdGVyLWczMWUyMTIzMjMxNF8wXzMzLjQiPjxmZUdhdXNzaWFuQmx1ciByZXN1bHQ9ImJsdXIiIHN0ZERldmlhdGlvbj0iMi4wIiBpbj0iU291cmNlQWxwaGEiLz48ZmVDb21wb25lbnRUcmFuc2ZlciBjb2xvci1pbnRlcnBvbGF0aW9uLWZpbHRlcnM9InNSR0IiIGluPSJibHVyIj48ZmVGdW5jUiB0eXBlPSJsaW5lYXIiLz48ZmVGdW5jRyB0eXBlPSJsaW5lYXIiLz48ZmVGdW5jQiB0eXBlPSJsaW5lYXIiLz48ZmVGdW5jQSB0eXBlPSJsaW5lYXIiLz48L2ZlQ29tcG9uZW50VHJhbnNmZXI+PC9maWx0ZXI+PC9kZWZzPjxnIGlkPSJnMzFlMjEyMzIzMTRfMF8zMy40Ij48cGF0aCBmaWxsLXJ1bGU9ImV2ZW5vZGQiIGQ9Im00MS4wNDY1NjYgODIuNjAxMDVsMjEuNzI5NjYgMGwxOC42NTM1NDUgLTcwLjM4NTgyNmwtMjUuNTc0ODA2IDEzLjQ2MTk0M3oiIGZpbGw9IiMzMGEyZmYiLz48L2c+PC9nPjwvc3ZnPg==;" vertex="1" parent="1">
          <mxGeometry x="1060" y="140" width="50" height="50" as="geometry" />
        </mxCell>
        <mxCell id="h2_7Q08Zruv0tOP9LdHY-23" style="edgeStyle=orthogonalEdgeStyle;rounded=0;orthogonalLoop=1;jettySize=auto;html=1;entryX=0.5;entryY=0;entryDx=0;entryDy=0;exitX=0.5;exitY=1;exitDx=0;exitDy=0;flowAnimation=1;" edge="1" parent="1" source="h2_7Q08Zruv0tOP9LdHY-1" target="h2_7Q08Zruv0tOP9LdHY-11">
          <mxGeometry relative="1" as="geometry" />
        </mxCell>
        <mxCell id="h2_7Q08Zruv0tOP9LdHY-24" style="edgeStyle=orthogonalEdgeStyle;rounded=0;orthogonalLoop=1;jettySize=auto;html=1;exitX=0.5;exitY=1;exitDx=0;exitDy=0;entryX=0.5;entryY=0;entryDx=0;entryDy=0;flowAnimation=1;" edge="1" parent="1" source="h2_7Q08Zruv0tOP9LdHY-1" target="h2_7Q08Zruv0tOP9LdHY-3">
          <mxGeometry relative="1" as="geometry" />
        </mxCell>
        <mxCell id="h2_7Q08Zruv0tOP9LdHY-41" style="edgeStyle=orthogonalEdgeStyle;rounded=0;orthogonalLoop=1;jettySize=auto;html=1;entryX=0;entryY=0.5;entryDx=0;entryDy=0;flowAnimation=1;" edge="1" parent="1" source="h2_7Q08Zruv0tOP9LdHY-1" target="h2_7Q08Zruv0tOP9LdHY-4">
          <mxGeometry relative="1" as="geometry" />
        </mxCell>
        <mxCell id="h2_7Q08Zruv0tOP9LdHY-44" style="edgeStyle=orthogonalEdgeStyle;rounded=0;orthogonalLoop=1;jettySize=auto;html=1;exitX=1;exitY=0.5;exitDx=0;exitDy=0;entryX=0;entryY=0.5;entryDx=0;entryDy=0;flowAnimation=1;" edge="1" parent="1" source="h2_7Q08Zruv0tOP9LdHY-1" target="h2_7Q08Zruv0tOP9LdHY-13">
          <mxGeometry relative="1" as="geometry">
            <Array as="points">
              <mxPoint x="1325" y="250" />
              <mxPoint x="1383" y="250" />
              <mxPoint x="1383" y="293" />
            </Array>
          </mxGeometry>
        </mxCell>
        <mxCell id="h2_7Q08Zruv0tOP9LdHY-46" style="edgeStyle=orthogonalEdgeStyle;rounded=0;orthogonalLoop=1;jettySize=auto;html=1;entryX=0;entryY=0.5;entryDx=0;entryDy=0;flowAnimation=1;" edge="1" parent="1" source="h2_7Q08Zruv0tOP9LdHY-1" target="h2_7Q08Zruv0tOP9LdHY-8">
          <mxGeometry relative="1" as="geometry">
            <Array as="points">
              <mxPoint x="1300" y="148" />
            </Array>
          </mxGeometry>
        </mxCell>
        <mxCell id="h2_7Q08Zruv0tOP9LdHY-1" value="" style="shape=image;verticalLabelPosition=bottom;labelBackgroundColor=default;verticalAlign=top;aspect=fixed;imageAspect=0;image=data:image/svg+xml,PHN2ZyB4bWxucz0iaHR0cDovL3d3dy53My5vcmcvMjAwMC9zdmciIHZpZXdCb3g9IjAgMCA1MDAgNTAwIj4mI3hhOyAgICA8Y2lyY2xlIGZpbGw9IiNmZmYiIHI9IjI1MCIgY3k9IjI1MCIgY3g9IjI1MCIvPiYjeGE7ICAgIDxwYXRoIGQ9Im0zMzUgMTUwaDQwdjIwMGgtNDB6bS0xMzAgMGExMDAgMTAwIDAgMSAwIDAgMjAwIDEwMCAxMDAgMCAxIDAgMC0yMDB6bTAgNDBhNjAgNjAgMCAxIDEgMCAxMjAgNjAgNjAgMCAxIDEgMC0xMjB6Ii8+JiN4YTs8L3N2Zz4=;" vertex="1" parent="1">
          <mxGeometry x="1275" y="200" width="50" height="50" as="geometry" />
        </mxCell>
        <mxCell id="h2_7Q08Zruv0tOP9LdHY-36" style="edgeStyle=orthogonalEdgeStyle;rounded=0;orthogonalLoop=1;jettySize=auto;html=1;entryX=0;entryY=0.5;entryDx=0;entryDy=0;flowAnimation=1;endArrow=none;endFill=0;startArrow=classic;startFill=1;flowAnimationDirection=reverse;" edge="1" parent="1" source="h2_7Q08Zruv0tOP9LdHY-27" target="h2_7Q08Zruv0tOP9LdHY-1">
          <mxGeometry relative="1" as="geometry" />
        </mxCell>
        <mxCell id="h2_7Q08Zruv0tOP9LdHY-27" value="" style="shape=image;verticalLabelPosition=bottom;labelBackgroundColor=default;verticalAlign=top;aspect=fixed;imageAspect=0;image=data:image/svg+xml,PHN2ZyB4bWxucz0iaHR0cDovL3d3dy53My5vcmcvMjAwMC9zdmciIHhtbG5zOnhsaW5rPSJodHRwOi8vd3d3LnczLm9yZy8xOTk5L3hsaW5rIiBzdHJva2UtbWl0ZXJsaW1pdD0iMTAiIHN0cm9rZS1saW5lY2FwPSJzcXVhcmUiIHN0cm9rZT0ibm9uZSIgZmlsbD0ibm9uZSIgdmlld0JveD0iMC4wIDAuMCA5Ni4wIDk2LjAiIHZlcnNpb249IjEuMSI+PGNsaXBQYXRoIGlkPSJnMzFlMjEyMzIzMTRfMF8zMy4wIj48cGF0aCBjbGlwLXJ1bGU9Im5vbnplcm8iIGQ9Im0wIDBsOTYuMCAwbDAgOTYuMGwtOTYuMCAwbDAgLTk2LjB6Ii8+PC9jbGlwUGF0aD48ZyBjbGlwLXBhdGg9InVybCgjZzMxZTIxMjMyMzE0XzBfMzMuMCkiPjxwYXRoIGZpbGwtcnVsZT0iZXZlbm9kZCIgZD0ibTAgMGw5Ni4wIDBsMCA5Ni4wbC05Ni4wIDB6IiBmaWxsPSIjZmZmZmZmIi8+PHBhdGggZmlsbC1ydWxlPSJldmVub2RkIiBkPSJtNDEuMDQ5NjEgODAuMjcxMzI0bDEuODg5NzYyOSAwbDAgMi4zMzA3MTE0bC0xLjg4OTc2MjkgMHoiIGZpbGw9IiNkOWQ5ZDkiLz48cGF0aCBmaWxsLXJ1bGU9ImV2ZW5vZGQiIGQ9Im00Mi4yMjE4NTUgODEuNDUxNDVsMS44ODk3NjI5IDBsMCAyLjMzMDcwMzdsLTEuODg5NzYyOSAweiIgZmlsbD0iI2Q5ZDlkOSIvPjxnIGZpbHRlcj0idXJsKCNzaGFkb3dGaWx0ZXItZzMxZTIxMjMyMzE0XzBfMzMuMSkiPjx1c2UgdHJhbnNmb3JtPSJtYXRyaXgoMS4wIDAuMCAwLjAgMS4wIDAuMCAyLjApIiB4bGluazpocmVmPSIjZzMxZTIxMjMyMzE0XzBfMzMuMSIvPjwvZz48ZGVmcz48ZmlsdGVyIGZpbHRlclVuaXRzPSJ1c2VyU3BhY2VPblVzZSIgaWQ9InNoYWRvd0ZpbHRlci1nMzFlMjEyMzIzMTRfMF8zMy4xIj48ZmVHYXVzc2lhbkJsdXIgcmVzdWx0PSJibHVyIiBzdGREZXZpYXRpb249IjIuMCIgaW49IlNvdXJjZUFscGhhIi8+PGZlQ29tcG9uZW50VHJhbnNmZXIgY29sb3ItaW50ZXJwb2xhdGlvbi1maWx0ZXJzPSJzUkdCIiBpbj0iYmx1ciI+PGZlRnVuY1IgdHlwZT0ibGluZWFyIi8+PGZlRnVuY0cgdHlwZT0ibGluZWFyIi8+PGZlRnVuY0IgdHlwZT0ibGluZWFyIi8+PGZlRnVuY0EgdHlwZT0ibGluZWFyIi8+PC9mZUNvbXBvbmVudFRyYW5zZmVyPjwvZmlsdGVyPjwvZGVmcz48ZyBpZD0iZzMxZTIxMjMyMzE0XzBfMzMuMSI+PHBhdGggZmlsbC1ydWxlPSJldmVub2RkIiBkPSJtNDIuMjI0MTcgMjguNDcwNDM0bDAgNTUuMzA3MDgzbC0yNy42NTM1NDMgLTU1LjMwNzA4M3oiIGZpbGw9IiNkOWQ5ZDkiLz48L2c+PGcgZmlsdGVyPSJ1cmwoI3NoYWRvd0ZpbHRlci1nMzFlMjEyMzIzMTRfMF8zMy4yKSI+PHVzZSB0cmFuc2Zvcm09Im1hdHJpeCgxLjAgMC4wIDAuMCAxLjAgMC4wIDIuMCkiIHhsaW5rOmhyZWY9IiNnMzFlMjEyMzIzMTRfMF8zMy4yIi8+PC9nPjxkZWZzPjxmaWx0ZXIgZmlsdGVyVW5pdHM9InVzZXJTcGFjZU9uVXNlIiBpZD0ic2hhZG93RmlsdGVyLWczMWUyMTIzMjMxNF8wXzMzLjIiPjxmZUdhdXNzaWFuQmx1ciByZXN1bHQ9ImJsdXIiIHN0ZERldmlhdGlvbj0iMi4wIiBpbj0iU291cmNlQWxwaGEiLz48ZmVDb21wb25lbnRUcmFuc2ZlciBjb2xvci1pbnRlcnBvbGF0aW9uLWZpbHRlcnM9InNSR0IiIGluPSJibHVyIj48ZmVGdW5jUiB0eXBlPSJsaW5lYXIiLz48ZmVGdW5jRyB0eXBlPSJsaW5lYXIiLz48ZmVGdW5jQiB0eXBlPSJsaW5lYXIiLz48ZmVGdW5jQSB0eXBlPSJsaW5lYXIiLz48L2ZlQ29tcG9uZW50VHJhbnNmZXI+PC9maWx0ZXI+PC9kZWZzPjxnIGlkPSJnMzFlMjEyMzIzMTRfMF8zMy4yIj48cGF0aCBmaWxsLXJ1bGU9ImV2ZW5vZGQiIGQ9Im00Mi4yMjMwMzggODMuNzc3NTJsMjEuNzI5NjU2IDBsMTguNjUzNTQ1IC03MC4zODU4MjZsLTI1LjU3NDgwMiAxMy40NjE5NDN6IiBmaWxsPSIjZDlkOWQ5Ii8+PC9nPjxnIGZpbHRlcj0idXJsKCNzaGFkb3dGaWx0ZXItZzMxZTIxMjMyMzE0XzBfMzMuMykiPjx1c2UgdHJhbnNmb3JtPSJtYXRyaXgoMS4wIDAuMCAwLjAgMS4wIDAuMCAyLjApIiB4bGluazpocmVmPSIjZzMxZTIxMjMyMzE0XzBfMzMuMyIvPjwvZz48ZGVmcz48ZmlsdGVyIGZpbHRlclVuaXRzPSJ1c2VyU3BhY2VPblVzZSIgaWQ9InNoYWRvd0ZpbHRlci1nMzFlMjEyMzIzMTRfMF8zMy4zIj48ZmVHYXVzc2lhbkJsdXIgcmVzdWx0PSJibHVyIiBzdGREZXZpYXRpb249IjIuMCIgaW49IlNvdXJjZUFscGhhIi8+PGZlQ29tcG9uZW50VHJhbnNmZXIgY29sb3ItaW50ZXJwb2xhdGlvbi1maWx0ZXJzPSJzUkdCIiBpbj0iYmx1ciI+PGZlRnVuY1IgdHlwZT0ibGluZWFyIi8+PGZlRnVuY0cgdHlwZT0ibGluZWFyIi8+PGZlRnVuY0IgdHlwZT0ibGluZWFyIi8+PGZlRnVuY0EgdHlwZT0ibGluZWFyIi8+PC9mZUNvbXBvbmVudFRyYW5zZmVyPjwvZmlsdGVyPjwvZGVmcz48ZyBpZD0iZzMxZTIxMjMyMzE0XzBfMzMuMyI+PHBhdGggZmlsbC1ydWxlPSJldmVub2RkIiBkPSJtNDEuMDQ3NyAyNy4yOTM5NjJsMCA1NS4zMDcwOWwtMjcuNjUzNTQyIC01NS4zMDcwOXoiIGZpbGw9IiNmZGI1MTUiLz48L2c+PGcgZmlsdGVyPSJ1cmwoI3NoYWRvd0ZpbHRlci1nMzFlMjEyMzIzMTRfMF8zMy40KSI+PHVzZSB0cmFuc2Zvcm09Im1hdHJpeCgxLjAgMC4wIDAuMCAxLjAgMC4wIDIuMCkiIHhsaW5rOmhyZWY9IiNnMzFlMjEyMzIzMTRfMF8zMy40Ii8+PC9nPjxkZWZzPjxmaWx0ZXIgZmlsdGVyVW5pdHM9InVzZXJTcGFjZU9uVXNlIiBpZD0ic2hhZG93RmlsdGVyLWczMWUyMTIzMjMxNF8wXzMzLjQiPjxmZUdhdXNzaWFuQmx1ciByZXN1bHQ9ImJsdXIiIHN0ZERldmlhdGlvbj0iMi4wIiBpbj0iU291cmNlQWxwaGEiLz48ZmVDb21wb25lbnRUcmFuc2ZlciBjb2xvci1pbnRlcnBvbGF0aW9uLWZpbHRlcnM9InNSR0IiIGluPSJibHVyIj48ZmVGdW5jUiB0eXBlPSJsaW5lYXIiLz48ZmVGdW5jRyB0eXBlPSJsaW5lYXIiLz48ZmVGdW5jQiB0eXBlPSJsaW5lYXIiLz48ZmVGdW5jQSB0eXBlPSJsaW5lYXIiLz48L2ZlQ29tcG9uZW50VHJhbnNmZXI+PC9maWx0ZXI+PC9kZWZzPjxnIGlkPSJnMzFlMjEyMzIzMTRfMF8zMy40Ij48cGF0aCBmaWxsLXJ1bGU9ImV2ZW5vZGQiIGQ9Im00MS4wNDY1NjYgODIuNjAxMDVsMjEuNzI5NjYgMGwxOC42NTM1NDUgLTcwLjM4NTgyNmwtMjUuNTc0ODA2IDEzLjQ2MTk0M3oiIGZpbGw9IiMzMGEyZmYiLz48L2c+PC9nPjwvc3ZnPg==;" vertex="1" parent="1">
          <mxGeometry x="1060" y="200" width="50" height="50" as="geometry" />
        </mxCell>
        <mxCell id="h2_7Q08Zruv0tOP9LdHY-37" style="edgeStyle=orthogonalEdgeStyle;rounded=0;orthogonalLoop=1;jettySize=auto;html=1;entryX=0;entryY=0.5;entryDx=0;entryDy=0;flowAnimation=1;endArrow=none;endFill=0;startArrow=classic;startFill=1;flowAnimationDirection=reverse;" edge="1" parent="1" source="h2_7Q08Zruv0tOP9LdHY-28" target="h2_7Q08Zruv0tOP9LdHY-1">
          <mxGeometry relative="1" as="geometry" />
        </mxCell>
        <mxCell id="h2_7Q08Zruv0tOP9LdHY-28" value="" style="shape=image;verticalLabelPosition=bottom;labelBackgroundColor=default;verticalAlign=top;aspect=fixed;imageAspect=0;image=data:image/svg+xml,PHN2ZyB4bWxucz0iaHR0cDovL3d3dy53My5vcmcvMjAwMC9zdmciIHZpZXdCb3g9IjAgMCAyNCAyNCIgcm9sZT0iaW1nIj48dGl0bGU+T2xsYW1hPC90aXRsZT48cGF0aCBkPSJNMTYuMzYxIDEwLjI2YS44OTQuODk0IDAgMCAwLS41NTguNDdsLS4wNzIuMTQ4LjAwMS4yMDdjMCAuMTkzLjAwNC4yMTcuMDU5LjM1My4wNzYuMTkzLjE1Mi4zMTIuMjkxLjQ0OC4yNC4yMzguNTEuMy44NzIuMjA1YS44Ni44NiAwIDAgMCAuNTE3LS40MzYuNzUyLjc1MiAwIDAgMCAuMDgtLjQ5OGMtLjA2NC0uNDUzLS4zMy0uNzgyLS43MjQtLjg5N2ExLjA2IDEuMDYgMCAwIDAtLjQ2NiAwem0tOS4yMDMuMDA1Yy0uMzA1LjA5Ni0uNTMzLjMyLS42NS42MzlhMS4xODcgMS4xODcgMCAwIDAtLjA2LjUyYy4wNTcuMzA5LjMxLjU5LjU5OC42NjcuMzYyLjA5NS42MzIuMDMzLjg3Mi0uMjA1LjE0LS4xMzYuMjE1LS4yNTUuMjkxLS40NDguMDU1LS4xMzYuMDU5LS4xNi4wNTktLjM1M2wuMDAxLS4yMDctLjA3Mi0uMTQ4YS44OTQuODk0IDAgMCAwLS41NjUtLjQ3MiAxLjAyIDEuMDIgMCAwIDAtLjQ3NC4wMDdabTQuMTg0IDJjLS4xMzEuMDcxLS4yMjMuMjUtLjE5NS4zODMuMDMxLjE0My4xNTcuMjg4LjM1My40MDcuMTA1LjA2My4xMTIuMDcyLjExNy4xMzYuMDA0LjAzOC0uMDEuMTQ2LS4wMjkuMjQzLS4wMi4wOTQtLjAzNi4xOTQtLjAzNi4yMjIuMDAyLjA3NC4wNy4xOTUuMTQzLjI1My4wNjQuMDUyLjA3Ni4wNTQuMjU1LjA1OS4xNjQuMDA1LjE5OC4wMDEuMjY0LS4wMy4xNjktLjA4Mi4yMTItLjIzNC4xNS0uNTI1LS4wNTItLjI0My0uMDQyLS4yOC4wODctLjM1NS4xMzctLjA4LjI4MS0uMjE5LjMyNC0uMzE0YS4zNjUuMzY1IDAgMCAwLS4xNzUtLjQ4LjM5NC4zOTQgMCAwIDAtLjE4MS0uMDMzYy0uMTI2IDAtLjIwNy4wMy0uMzU1LjEyNGwtLjA4NS4wNTMtLjA1My0uMDMyYy0uMjE5LS4xMy0uMjU5LS4xNDUtLjM5MS0uMTQzYS4zOTYuMzk2IDAgMCAwLS4xOTMuMDMyem0uMzktMi4xOTVjLS4zNzMuMDM2LS40NzUuMDUtLjY1NC4wODYtLjI5MS4wNi0uNjguMTk1LS45NTEuMzI4LS45NC40Ni0xLjU4OSAxLjIyNi0xLjc4NyAyLjExNC0uMDQuMTc2LS4wNDUuMjM0LS4wNDUuNTMgMCAuMjk0LjAwNS4zNTcuMDQzLjUyNC4yNjQgMS4xNiAxLjMzMiAyLjAxNyAyLjcxNCAyLjE3My4zLjAzMyAxLjU5Ni4wMzMgMS44OTYgMCAxLjExLS4xMjUgMi4wNjQtLjcyNyAyLjQ5My0xLjU3MS4xMTQtLjIyNi4xNjktLjM3Mi4yMi0uNjAyLjAzOS0uMTY3LjA0NC0uMjMuMDQ0LS41MjMgMC0uMjk3LS4wMDUtLjM1NS0uMDQ1LS41MzEtLjI4OC0xLjI5LTEuNTM5LTIuMzA0LTMuMDcyLTIuNDk3YTYuODczIDYuODczIDAgMCAwLS44NTUtLjAzMXptLjY0NS45MzdhMy4yODMgMy4yODMgMCAwIDEgMS40NC41MTRjLjIyMy4xNDguNTM3LjQ1OC42NzEuNjYyLjE2Ni4yNTEuMjYuNTA4LjMwMy44Mi4wMi4xNDMuMDEuMjUxLS4wNDMuNDgyLS4wOC4zNDUtLjMzMi43MDUtLjY3Mi45NTdhMy4xMTUgMy4xMTUgMCAwIDEtLjY4OS4zNDhjLS4zODIuMTIyLS42MzIuMTQ0LTEuNTI1LjEzOC0uNTgyLS4wMDYtLjY4Ni0uMDEtLjg1My0uMDQyLS41Ny0uMTA3LTEuMDIyLS4zMzQtMS4zNS0uNjgtLjI2NC0uMjgtLjM4NS0uNTM1LS40NS0uOTQ2LS4wMy0uMTkyLjAyNS0uNTA5LjEzNy0uNzc2LjEzNi0uMzI2LjQ4OC0uNzMuODM2LS45NjMuNDAzLS4yNjkuOTM0LS40NiAxLjQyMi0uNTEyLjE4Ny0uMDIuNTg2LS4wMi43NzMtLjAwMnptLTUuNTAzLTExYTEuNjUzIDEuNjUzIDAgMCAwLS42ODMuMjk4QzUuNjE3Ljc0IDUuMTczIDEuNjY2IDQuOTg1IDIuODE5Yy0uMDcuNDM2LS4xMTkgMS4wNC0uMTE5IDEuNTAzIDAgLjU0NC4wNjQgMS4yNC4xNTUgMS43MjEuMDIuMTA3LjAzMS4yMDIuMDIzLjIwOGE4LjEyIDguMTIgMCAwIDEtLjE4Ny4xNTIgNS4zMjQgNS4zMjQgMCAwIDAtLjk0OSAxLjAyIDUuNDkgNS40OSAwIDAgMC0uOTQgMi4zMzkgNi42MjUgNi42MjUgMCAwIDAtLjAyMyAxLjM1N2MuMDkxLjc4LjMyNSAxLjQzOC43MjcgMi4wNGwuMTMuMTk1LS4wMzcuMDY0Yy0uMjY5LjQ1Mi0uNDk4IDEuMTA1LS42MDUgMS43MzItLjA4NC40OTYtLjA5NS42MjktLjA5NSAxLjI5NCAwIC42Ny4wMDkuODAzLjA4OCAxLjI2Ni4wOTUuNTU1LjI4OCAxLjE0My41MDMgMS41MzQuMDcxLjEyOC4yNDMuMzkzLjI2NC40MDcuMDA3LjAwMy0uMDE0LjA2Ny0uMDQ2LjE0MWE3LjQwNSA3LjQwNSAwIDAgMC0uNTQ4IDEuODczYy0uMDYyLjQxNy0uMDcxLjU1Mi0uMDcxLjk5MSAwIC41Ni4wMzEuODMyLjE0OCAxLjI3OUwzLjQyIDI0aDEuNDc4bC0uMDUtLjA5MWMtLjI5Ny0uNTUyLS4zMjUtMS41NzUtLjA2OC0yLjU5Ny4xMTctLjQ3Mi4yNS0uODE5LjQ5OC0xLjI5NmwuMTQ4LS4yOXYtLjE3N2MwLS4xNjUtLjAwMy0uMTg0LS4wNTctLjI5M2EuOTE1LjkxNSAwIDAgMC0uMTk0LS4yNSAxLjc0IDEuNzQgMCAwIDEtLjM4NS0uNTQzYy0uNDI0LS45Mi0uNTA2LTIuMjg2LS4yMDgtMy40NTEuMTI0LS40ODYuMzI5LS45MTguNTQ0LTEuMTU0YS43ODcuNzg3IDAgMCAwIC4yMjMtLjUzMWMwLS4xOTUtLjA3LS4zNTUtLjIyNC0uNTIyYTMuMTM2IDMuMTM2IDAgMCAxLS44MTctMS43MjljLS4xNC0uOTYuMTE0LTIuMDA1LjY5LTIuODM0LjU2My0uODE0IDEuMzUzLTEuMzM2IDIuMjM3LTEuNDc1LjE5OS0uMDMzLjU3LS4wMjguNzc2LjAxLjIyNi4wNC4zNjcuMDI4LjUxMi0uMDQxLjE3OS0uMDg1LjI2OC0uMTkuMzc0LS40MzEuMDkzLS4yMTUuMTY1LS4zMzMuMzYtLjU3Ni4yMzQtLjI5LjQ2LS40ODkuODIyLS43MjkuNDEzLS4yNy44ODQtLjQ2NyAxLjM1Mi0uNTYxLjE3LS4wMzUuMjUtLjA0LjU2OS0uMDQuMzE5IDAgLjM5OC4wMDUuNTY5LjA0YTQuMDcgNC4wNyAwIDAgMSAxLjkxNC45OTdjLjExNy4xMDkuMzk4LjQ1Ny40ODguNjAyLjAzNC4wNTcuMDk1LjE3Ny4xMzIuMjY3LjEwNS4yNDEuMTk1LjM0Ni4zNzQuNDMuMTQuMDY4LjI4Ni4wODIuNTAzLjA0NS4zNDMtLjA1OC42MDctLjA1My45NDMuMDE2IDEuMTQ0LjIzIDIuMTQgMS4xNzMgMi41ODEgMi40MzcuMzg1IDEuMTA4LjI3NiAyLjI2Ny0uMjk2IDMuMTUzLS4wOTcuMTUtLjE5My4yNy0uMzMzLjQxOS0uMzAxLjMyMi0uMzAxLjcyMi0uMDAxIDEuMDUzLjQ5My41MzkuODAxIDEuODY2LjcwOCAzLjAzNi0uMDYyLjc3Mi0uMjYgMS40NjMtLjUzMyAxLjg1NGEyLjA5NiAyLjA5NiAwIDAgMS0uMjI0LjI1OC45MTYuOTE2IDAgMCAwLS4xOTQuMjVjLS4wNTQuMTA5LS4wNTcuMTI4LS4wNTcuMjkzdi4xNzhsLjE0OC4yOWMuMjQ4LjQ3Ni4zOC44MjMuNDk4IDEuMjk1LjI1MyAxLjAwOC4yMzEgMi4wMS0uMDU5IDIuNTgxYS44NDUuODQ1IDAgMCAwLS4wNDQuMDk4YzAgLjAwNi4zMjkuMDA5LjczMi4wMDloLjczbC4wMi0uMDc0LjAzNi0uMTM0Yy4wMTktLjA3Ni4wNTctLjMuMDg4LS41MTYuMDI5LS4yMTcuMDI5LTEuMDE2IDAtMS4yNTgtLjExLS44NzUtLjI5NS0xLjU3LS41OTctMi4yMjYtLjAzMi0uMDc0LS4wNTMtLjEzOC0uMDQ2LS4xNDEuMDA4LS4wMDUuMDU3LS4wNzQuMTA4LS4xNTIuMzc2LS41NjkuNjA3LTEuMjg0LjcyNC0yLjIyOC4wMzEtLjI2LjAzMS0xLjM3OCAwLTEuNjI4LS4wODMtLjY0NS0uMTgyLTEuMDgyLS4zNDgtMS41MjVhNi4wODMgNi4wODMgMCAwIDAtLjMyOS0uN2wtLjAzOC0uMDY0LjEzMS0uMTk0Yy40MDItLjYwNC42MzYtMS4yNjIuNzI3LTIuMDRhNi42MjUgNi42MjUgMCAwIDAtLjAyNC0xLjM1OCA1LjUxMiA1LjUxMiAwIDAgMC0uOTM5LTIuMzM5IDUuMzI1IDUuMzI1IDAgMCAwLS45NS0xLjAyIDguMDk3IDguMDk3IDAgMCAxLS4xODYtLjE1Mi42OTIuNjkyIDAgMCAxIC4wMjMtLjIwOGMuMjA4LTEuMDg3LjIwMS0yLjQ0My0uMDE3LTMuNTAzLS4xOS0uOTI0LS41MzUtMS42NTgtLjk4LTIuMDgyLS4zNTQtLjMzOC0uNzE2LS40ODItMS4xNS0uNDU1LS45OTYuMDU5LTEuOCAxLjIwNS0yLjExNiAzLjAxYTYuODA1IDYuODA1IDAgMCAwLS4wOTcuNzI2YzAgLjAzNi0uMDA3LjA2Ni0uMDE1LjA2NmEuOTYuOTYgMCAwIDEtLjE0OS0uMDc4QTQuODU3IDQuODU3IDAgMCAwIDEyIDMuMDNjLS44MzIgMC0xLjY4Ny4yNDMtMi40NTYuNjk4YS45NTguOTU4IDAgMCAxLS4xNDguMDc4Yy0uMDA4IDAtLjAxNS0uMDMtLjAxNS0uMDY2YTYuNzEgNi43MSAwIDAgMC0uMDk3LS43MjVDOC45OTcgMS4zOTIgOC4zMzcuMzE5IDcuNDYuMDQ4YTIuMDk2IDIuMDk2IDAgMCAwLS41ODUtLjA0MVptLjI5MyAxLjQwMmMuMjQ4LjE5Ny41MjMuNzU5LjY4MiAxLjM4OC4wMy4xMTMuMDYuMjQ0LjA2OS4yOTIuMDA3LjA0Ny4wMjYuMTUyLjA0MS4yMzMuMDY3LjM2NS4wOTguNzYuMTAyIDEuMjRsLjAwMi40NzUtLjEyLjE3NS0uMTE4LjE3OGgtLjI3OGMtLjMyNCAwLS42NDYuMDQxLS45NTQuMTI0bC0uMjM4LjA2Yy0uMDMzLjAwNy0uMDM4LS4wMDMtLjA1Ny0uMTQ0YTguNDM4IDguNDM4IDAgMCAxIC4wMTYtMi4zMjNjLjEyNC0uNzg4LjQxMy0xLjUwMS42OTYtMS43MTEuMDY3LS4wNS4wNzktLjA0OS4xNTcuMDEzem05LjgyNS0uMDEyYy4xNy4xMjYuMzU4LjQ2LjQ5OC44ODguMjguODU0LjM2IDIuMDI4LjIxMiAzLjE0NS0uMDE5LjE0LS4wMjQuMTUxLS4wNTcuMTQ0bC0uMjM4LS4wNmEzLjY5MyAzLjY5MyAwIDAgMC0uOTU0LS4xMjRoLS4yNzhsLS4xMTktLjE3OC0uMTE5LS4xNzUuMDAyLS40NzRjLjAwNC0uNjY5LjA2Ni0xLjE5LjIxNC0xLjc3Mi4xNTctLjYyMy40MzQtMS4xODUuNjgtMS4zODIuMDc4LS4wNjIuMDktLjA2My4xNTktLjAxMnoiLz48L3N2Zz4=;" vertex="1" parent="1">
          <mxGeometry x="1060" y="260" width="50" height="50" as="geometry" />
        </mxCell>
        <mxCell id="h2_7Q08Zruv0tOP9LdHY-29" value="&lt;b&gt;LLM&lt;/b&gt;" style="ellipse;whiteSpace=wrap;html=1;aspect=fixed;" vertex="1" parent="1">
          <mxGeometry x="990" y="208.34000000000003" width="50" height="33.33" as="geometry" />
        </mxCell>
        <mxCell id="h2_7Q08Zruv0tOP9LdHY-30" value="&lt;b&gt;LLM&lt;/b&gt;" style="ellipse;whiteSpace=wrap;html=1;aspect=fixed;" vertex="1" parent="1">
          <mxGeometry x="990" y="268.33000000000004" width="50" height="33.33" as="geometry" />
        </mxCell>
        <mxCell id="h2_7Q08Zruv0tOP9LdHY-31" value="&lt;font style=&quot;font-size: 10px;&quot;&gt;Reranking Model&lt;/font&gt;" style="text;html=1;align=center;verticalAlign=middle;resizable=0;points=[];autosize=1;strokeColor=none;fillColor=none;" vertex="1" parent="1">
          <mxGeometry x="965" y="173.4" width="100" height="30" as="geometry" />
        </mxCell>
        <mxCell id="h2_7Q08Zruv0tOP9LdHY-32" value="&lt;font style=&quot;font-size: 10px;&quot;&gt;General Chat Model&lt;/font&gt;" style="text;html=1;align=center;verticalAlign=middle;resizable=0;points=[];autosize=1;strokeColor=none;fillColor=none;" vertex="1" parent="1">
          <mxGeometry x="960" y="234.33" width="110" height="30" as="geometry" />
        </mxCell>
        <mxCell id="h2_7Q08Zruv0tOP9LdHY-34" value="&lt;font style=&quot;font-size: 10px;&quot;&gt;Embeeding Model&lt;/font&gt;" style="text;html=1;align=center;verticalAlign=middle;resizable=0;points=[];autosize=1;strokeColor=none;fillColor=none;" vertex="1" parent="1">
          <mxGeometry x="965" y="292" width="100" height="30" as="geometry" />
        </mxCell>
        <mxCell id="h2_7Q08Zruv0tOP9LdHY-38" value="OpenAPI Connections" style="text;html=1;align=center;verticalAlign=middle;resizable=0;points=[];autosize=1;strokeColor=none;fillColor=none;labelBackgroundColor=default;fontSize=8;" vertex="1" parent="1">
          <mxGeometry x="1150" y="195" width="100" height="20" as="geometry" />
        </mxCell>
        <mxCell id="h2_7Q08Zruv0tOP9LdHY-39" value="Vector DB&lt;div style=&quot;font-size: 8px;&quot;&gt;for Chunks&lt;/div&gt;" style="text;html=1;align=center;verticalAlign=middle;resizable=0;points=[];autosize=1;strokeColor=none;fillColor=none;labelBackgroundColor=default;fontSize=8;" vertex="1" parent="1">
          <mxGeometry x="1310" y="275" width="60" height="30" as="geometry" />
        </mxCell>
        <mxCell id="h2_7Q08Zruv0tOP9LdHY-40" value="DB for chat history&lt;div style=&quot;font-size: 8px;&quot;&gt;and persistent&lt;/div&gt;&lt;div style=&quot;font-size: 8px;&quot;&gt;configuration&lt;/div&gt;" style="text;html=1;align=center;verticalAlign=middle;resizable=0;points=[];autosize=1;strokeColor=none;fillColor=none;labelBackgroundColor=default;fontSize=8;" vertex="1" parent="1">
          <mxGeometry x="1210" y="270" width="90" height="40" as="geometry" />
        </mxCell>
        <mxCell id="h2_7Q08Zruv0tOP9LdHY-43" value="Document&lt;div&gt;Parser&lt;/div&gt;" style="text;html=1;align=center;verticalAlign=middle;resizable=0;points=[];autosize=1;strokeColor=none;fillColor=none;labelBackgroundColor=default;fontSize=8;" vertex="1" parent="1">
          <mxGeometry x="1330" y="211.67000000000002" width="60" height="30" as="geometry" />
        </mxCell>
        <mxCell id="h2_7Q08Zruv0tOP9LdHY-45" value="Web Search" style="text;html=1;align=center;verticalAlign=middle;resizable=0;points=[];autosize=1;strokeColor=none;fillColor=none;labelBackgroundColor=default;fontSize=8;" vertex="1" parent="1">
          <mxGeometry x="1375" y="293.33000000000004" width="70" height="20" as="geometry" />
        </mxCell>
        <mxCell id="h2_7Q08Zruv0tOP9LdHY-47" value="Tools for&lt;div&gt;outside integrations&lt;/div&gt;" style="text;html=1;align=center;verticalAlign=middle;resizable=0;points=[];autosize=1;strokeColor=none;fillColor=none;labelBackgroundColor=default;fontSize=8;" vertex="1" parent="1">
          <mxGeometry x="1305" y="133.40000000000003" width="90" height="30" as="geometry" />
        </mxCell>
      </root>
    </mxGraphModel>
  </diagram>
</mxfile>
